<?xml version="1.0" standalone="no"?>
<!DOCTYPE svg PUBLIC "-//W3C//DTD SVG 20010904//EN"
 "http://www.w3.org/TR/2001/REC-SVG-20010904/DTD/svg10.dtd">
<svg version="1.0" xmlns="http://www.w3.org/2000/svg"
 width="720.000000pt" height="1280.000000pt" viewBox="0 0 720.000000 1280.000000"
 preserveAspectRatio="xMidYMid meet">

<g transform="translate(0.000000,1280.000000) scale(0.100000,-0.100000)"
fill="#000000" stroke="none">
<path d="M0 6400 l0 -6400 3600 0 3600 0 0 6400 0 6400 -1049 -1 c-815 0
-1051 -2 -1054 -12 -4 -9 -6 -9 -6 1 -1 16 -137 17 -147 1 -5 -8 -9 -7 -14 1
-4 7 -15 10 -24 7 -12 -5 -15 -14 -11 -34 5 -26 5 -27 -5 -5 -5 13 -8 28 -5
32 3 5 -163 9 -375 9 -237 0 -378 -4 -375 -10 4 -5 -1 -9 -9 -9 -9 0 -16 4
-16 9 0 6 -150 10 -375 10 -274 0 -375 -3 -375 -12 0 -8 -3 -8 -12 1 -17 17
-31 15 -25 -3 4 -8 2 -17 -3 -20 -6 -4 -10 0 -10 8 0 23 -18 26 -204 26 l-177
0 -6 -30 c-6 -32 -23 -45 -45 -36 -8 4 -5 8 10 12 12 4 22 11 22 15 0 5 3 15
6 24 5 13 -16 15 -167 15 -149 -1 -175 -3 -186 -17 -11 -16 -12 -16 -13 1 0
13 -9 17 -42 16 -24 0 -37 -3 -30 -6 20 -8 14 -22 -8 -16 -11 3 -20 9 -20 14
0 4 -83 8 -184 8 -178 0 -184 -1 -179 -20 4 -14 1 -18 -10 -13 -8 3 -18 1 -22
-5 -3 -6 -1 -11 6 -11 10 0 10 -3 2 -11 -9 -9 -16 -8 -28 5 -15 14 -15 17 -1
22 9 3 16 12 16 19 0 10 -16 14 -54 14 -48 0 -55 -3 -59 -22 -4 -22 -4 -22 -6
1 -1 18 -7 22 -37 22 -37 0 -70 -22 -59 -40 3 -5 -1 -10 -9 -10 -12 0 -14 5
-6 24 8 22 7 24 -26 24 -39 0 -56 -21 -47 -59 5 -21 4 -22 -8 -8 -8 9 -21 19
-29 22 -12 4 -11 6 3 6 10 1 17 9 17 21 0 22 -26 28 -33 8 -3 -10 -9 -10 -26
0 -32 19 -121 13 -121 -7 -1 -14 -2 -14 -10 0 -12 20 -150 27 -150 8 0 -8 -4
-8 -12 -2 -7 6 -36 10 -64 11 -40 0 -51 -3 -50 -15 0 -9 -5 -18 -13 -21 -9 -3
-11 1 -6 17 5 15 2 21 -10 21 -9 0 -13 -4 -10 -10 3 -5 -1 -10 -9 -10 -9 0
-16 5 -16 10 0 6 -11 10 -25 10 -18 0 -25 -5 -25 -20 0 -11 -5 -20 -11 -20 -6
0 -9 9 -6 20 4 17 0 20 -33 20 -22 0 -41 -4 -45 -10 -3 -6 -16 -5 -32 3 -21 9
-27 9 -31 -1 -2 -6 -8 -12 -13 -12 -6 0 -8 4 -4 10 8 14 -178 10 -187 -4 -6
-8 -10 -8 -15 0 -6 8 -119 12 -390 13 l-383 1 0 -6400z m500 6380 c0 -5 -5
-10 -11 -10 -5 0 -7 5 -4 10 3 6 8 10 11 10 2 0 4 -4 4 -10z m584 -6 c9 -24 2
-26 -12 -4 -7 11 -8 20 -3 20 5 0 12 -7 15 -16z m365 -11 c1 -1 0 -7 -4 -12
-7 -13 -35 10 -35 30 0 8 5 8 18 -2 9 -7 19 -14 21 -16z m161 16 c0 -6 9 -9
20 -6 23 6 38 -10 17 -18 -19 -8 -70 13 -62 25 8 13 25 13 25 -1z m302 -13 c4
-17 1 -23 -9 -19 -15 6 -15 6 -7 27 8 22 11 20 16 -8z m-1197 4 c3 -5 -1 -10
-9 -10 -9 0 -16 5 -16 10 0 6 4 10 9 10 6 0 13 -4 16 -10z m169 -2 c-7 -11
-54 -10 -54 1 0 5 13 8 29 7 16 0 27 -4 25 -8z m230 -3 c-4 -8 -8 -15 -10 -15
-2 0 -4 7 -4 15 0 8 4 15 10 15 5 0 7 -7 4 -15z m1681 5 c3 -5 1 -10 -4 -10
-6 0 -11 5 -11 10 0 6 2 10 4 10 3 0 8 -4 11 -10z m1103 -10 c-12 -19 -28 -27
-28 -14 0 6 30 33 38 34 1 0 -3 -9 -10 -20z m48 9 c3 -6 0 -15 -7 -20 -21 -13
-33 -11 -20 4 6 8 8 17 4 20 -3 4 -1 7 5 7 6 0 14 -5 18 -11z m404 1 c0 -5 -5
-10 -11 -10 -5 0 -7 5 -4 10 3 6 8 10 11 10 2 0 4 -4 4 -10z m-3735 -10 c3 -5
1 -10 -4 -10 -6 0 -11 5 -11 10 0 6 2 10 4 10 3 0 8 -4 11 -10z m334 -35 c0
-5 -4 -3 -9 5 -5 8 -9 22 -9 30 0 16 17 -16 18 -35z m1368 23 c-3 -8 -6 -5 -6
6 -1 11 2 17 5 13 3 -3 4 -12 1 -19z m203 6 c0 -8 -4 -12 -10 -9 -5 3 -10 10
-10 16 0 5 5 9 10 9 6 0 10 -7 10 -16z m230 -58 c-6 -6 -13 0 -18 15 -6 14 -6
25 -1 27 5 2 9 11 10 20 1 10 5 1 9 -18 5 -20 5 -39 0 -44z m315 64 c3 -5 2
-10 -4 -10 -5 0 -13 5 -16 10 -3 6 -2 10 4 10 5 0 13 -4 16 -10z m55 -16 c0
-8 -4 -14 -10 -14 -5 0 -10 9 -10 21 0 11 5 17 10 14 6 -3 10 -13 10 -21z m73
5 c-4 -15 -9 -17 -17 -9 -8 8 -7 13 4 20 8 5 16 10 17 10 0 0 -1 -9 -4 -21z
m227 17 c0 -3 -4 -8 -10 -11 -5 -3 -10 -1 -10 4 0 6 5 11 10 11 6 0 10 -2 10
-4z m155 -6 c3 -5 1 -10 -4 -10 -6 0 -11 5 -11 10 0 6 2 10 4 10 3 0 8 -4 11
-10z m882 -22 c-3 -7 -5 -2 -5 12 0 14 2 19 5 13 2 -7 2 -19 0 -25z m-3430 16
c-3 -3 -12 -4 -19 -1 -8 3 -5 6 6 6 11 1 17 -2 13 -5z m174 -21 c-8 -15 -10
-15 -11 -2 0 17 10 32 18 25 2 -3 -1 -13 -7 -23z m309 17 c0 -5 -8 -10 -17
-10 -15 0 -16 2 -3 10 19 12 20 12 20 0z m470 0 c0 -5 -5 -10 -11 -10 -5 0 -7
5 -4 10 3 6 8 10 11 10 2 0 4 -4 4 -10z m610 0 c0 -5 -4 -10 -10 -10 -5 0 -10
5 -10 10 0 6 5 10 10 10 6 0 10 -4 10 -10z m264 -5 c-4 -8 -10 -12 -15 -9 -11
6 -2 24 11 24 5 0 7 -7 4 -15z m416 -5 c0 -11 -2 -20 -4 -20 -2 0 -6 9 -9 20
-3 11 -1 20 4 20 5 0 9 -9 9 -20z m-1893 -14 c-22 -17 -22 -23 1 -29 15 -4 15
-5 0 -6 -9 0 -20 4 -23 10 -8 11 25 53 34 43 3 -3 -2 -11 -12 -18z m868 14 c3
-5 1 -10 -4 -10 -6 0 -11 5 -11 10 0 6 2 10 4 10 3 0 8 -4 11 -10z m148 -10
c3 -11 4 -20 3 -20 -2 0 -11 9 -21 20 -15 17 -16 20 -3 20 9 0 18 -9 21 -20z
m3190 13 c-7 -2 -19 -2 -25 0 -7 3 -2 5 12 5 14 0 19 -2 13 -5z m224 1 c-3 -3
-12 -4 -19 -1 -8 3 -5 6 6 6 11 1 17 -2 13 -5z m-5097 -14 c0 -5 -4 -10 -10
-10 -5 0 -10 5 -10 10 0 6 5 10 10 10 6 0 10 -4 10 -10z m990 0 c0 -5 -2 -10
-4 -10 -3 0 -8 5 -11 10 -3 6 -1 10 4 10 6 0 11 -4 11 -10z m160 -2 c0 -4 -4
-8 -9 -8 -6 0 -12 4 -15 8 -3 5 1 9 9 9 8 0 15 -4 15 -9z m155 2 c3 -5 1 -10
-4 -10 -6 0 -11 5 -11 10 0 6 2 10 4 10 3 0 8 -4 11 -10z m421 -1 c5 -8 9 -8
14 1 4 6 7 -2 8 -19 0 -23 -3 -28 -15 -24 -11 4 -11 8 -3 13 8 5 5 12 -11 24
-13 9 -18 16 -12 16 7 0 15 -5 19 -11z m228 2 c8 -12 -4 -41 -16 -41 -6 0 -8
7 -5 14 4 10 1 13 -9 9 -7 -3 -14 -1 -14 5 0 9 15 19 32 21 4 1 9 -3 12 -8z
m576 -1 c0 -5 -2 -10 -4 -10 -3 0 -8 5 -11 10 -3 6 -1 10 4 10 6 0 11 -4 11
-10z m2392 -12 c-7 -7 -12 -8 -12 -2 0 14 12 26 19 19 2 -3 -1 -11 -7 -17z
m-4372 -3 c-7 -9 -15 -13 -17 -11 -7 7 7 26 19 26 6 0 6 -6 -2 -15z m50 0 c0
-8 -4 -15 -9 -15 -13 0 -22 16 -14 24 11 11 23 6 23 -9z m5002 -10 c-2 -14 -8
-25 -13 -25 -12 0 -11 7 1 31 14 26 18 24 12 -6z m-5762 5 c0 -5 -5 -10 -11
-10 -5 0 -7 5 -4 10 3 6 8 10 11 10 2 0 4 -4 4 -10z m484 1 c3 -5 -1 -11 -9
-15 -9 -3 -15 0 -15 9 0 16 16 20 24 6z m604 -16 c15 -33 15 -36 -2 -29 -8 3
-20 -4 -28 -15 -8 -12 -18 -18 -21 -14 -13 13 -7 24 21 34 25 10 26 12 10 23
-21 16 -23 26 -5 26 8 0 19 -11 25 -25z m246 10 c-6 -16 -24 -21 -24 -7 0 11
11 22 21 22 5 0 6 -7 3 -15z m336 1 c0 -8 -10 -13 -25 -13 -41 0 -28 19 18 26
4 0 7 -5 7 -13z m120 10 c0 -11 -19 -15 -25 -6 -3 5 1 10 9 10 9 0 16 -2 16
-4z m-1356 -21 c-4 -8 -12 -15 -20 -15 -8 0 -11 6 -8 15 4 8 12 15 20 15 8 0
11 -6 8 -15z m236 5 c0 -5 -4 -10 -10 -10 -5 0 -10 5 -10 10 0 6 5 10 10 10 6
0 10 -4 10 -10z m730 0 c0 -13 -11 -13 -30 0 -12 8 -11 10 8 10 12 0 22 -4 22
-10z m114 -5 c6 -17 4 -18 -18 -9 -20 8 -21 24 -2 24 8 0 16 -7 20 -15z m653
-7 c-3 -8 -6 -5 -6 6 -1 11 2 17 5 13 3 -3 4 -12 1 -19z m697 7 c-4 -8 -8 -15
-10 -15 -2 0 -4 7 -4 15 0 8 4 15 10 15 5 0 7 -7 4 -15z m626 5 c0 -5 -4 -10
-10 -10 -5 0 -10 5 -10 10 0 6 5 10 10 10 6 0 10 -4 10 -10z m248 3 c-10 -2
-18 -9 -18 -15 0 -6 -3 -9 -6 -5 -10 10 6 27 24 26 15 -1 15 -2 0 -6z m-2286
-28 c3 -13 1 -22 -3 -19 -9 5 -13 44 -5 44 2 0 6 -11 8 -25z m858 15 c0 -5 -2
-10 -4 -10 -3 0 -8 5 -11 10 -3 6 -1 10 4 10 6 0 11 -4 11 -10z m187 -22 c-3
-7 -5 -2 -5 12 0 14 2 19 5 13 2 -7 2 -19 0 -25z m35 10 c-7 -7 -12 -8 -12 -2
0 14 12 26 19 19 2 -3 -1 -11 -7 -17z m188 14 c0 -4 -9 -8 -20 -8 -11 0 -20 4
-20 8 0 4 9 8 20 8 11 0 20 -4 20 -8z m650 -7 c0 -8 -2 -15 -4 -15 -2 0 -6 7
-10 15 -3 8 -1 15 4 15 6 0 10 -7 10 -15z m493 0 c-3 -9 -8 -14 -10 -11 -3 3
-2 9 2 15 9 16 15 13 8 -4z m1377 11 c0 -3 -4 -8 -10 -11 -5 -3 -10 -1 -10 4
0 6 5 11 10 11 6 0 10 -2 10 -4z m-4650 -15 c0 -14 -29 -21 -36 -9 -4 6 -3 8
4 4 6 -3 13 -2 17 4 8 12 15 13 15 1z m341 -22 c-22 -18 -25 -19 -34 -4 -5 9
-6 19 -3 22 3 4 6 1 6 -6 0 -9 6 -8 22 3 31 22 38 8 9 -15z m239 14 c0 -10 -4
-14 -8 -8 -4 6 -11 13 -16 18 -5 4 -2 7 7 7 10 0 17 -8 17 -17z m1090 7 c0 -5
-5 -10 -11 -10 -5 0 -7 5 -4 10 3 6 8 10 11 10 2 0 4 -4 4 -10z m400 6 c0 -3
-4 -8 -10 -11 -5 -3 -10 -1 -10 4 0 6 5 11 10 11 6 0 10 -2 10 -4z m-2313 -38
c-3 -7 -5 -2 -5 12 0 14 2 19 5 13 2 -7 2 -19 0 -25z m1572 1 c-19 -12 -29
-11 -29 1 0 6 7 10 15 10 8 0 15 6 16 13 0 8 2 8 6 -2 3 -7 -1 -17 -8 -22z
m446 21 c3 -5 1 -10 -4 -10 -6 0 -11 5 -11 10 0 6 2 10 4 10 3 0 8 -4 11 -10z
m697 -22 c-9 -9 -12 -7 -12 12 0 19 3 21 12 12 9 -9 9 -15 0 -24z m-2752 18
c0 -3 -4 -8 -10 -11 -5 -3 -10 -1 -10 4 0 6 5 11 10 11 6 0 10 -2 10 -4z m143
-37 c-8 -8 -14 -6 -22 9 -13 25 -2 37 18 17 11 -11 12 -18 4 -26z m387 31 c0
-5 -4 -10 -9 -10 -6 0 -13 5 -16 10 -3 6 1 10 9 10 9 0 16 -4 16 -10z m470 0
c0 -5 -4 -10 -10 -10 -5 0 -10 5 -10 10 0 6 5 10 10 10 6 0 10 -4 10 -10z
m230 0 c0 -5 -5 -10 -11 -10 -5 0 -7 5 -4 10 3 6 8 10 11 10 2 0 4 -4 4 -10z
m-540 -18 c0 -10 5 -23 10 -28 7 -7 6 -11 -4 -11 -8 0 -16 13 -18 29 -3 15 -1
28 4 28 4 0 8 -8 8 -18z m855 8 c3 -5 1 -10 -4 -10 -6 0 -11 5 -11 10 0 6 2
10 4 10 3 0 8 -4 11 -10z m799 -5 c-4 -8 -8 -15 -10 -15 -2 0 -4 7 -4 15 0 8
4 15 10 15 5 0 7 -7 4 -15z m363 9 c-3 -3 -12 -4 -19 -1 -8 3 -5 6 6 6 11 1
17 -2 13 -5z m848 -4 c3 -5 1 -10 -4 -10 -6 0 -11 5 -11 10 0 6 2 10 4 10 3 0
8 -4 11 -10z m-2975 -17 c0 -10 -4 -14 -8 -8 -4 6 -11 13 -16 18 -5 4 -2 7 7
7 10 0 17 -8 17 -17z m467 3 c-3 -7 0 -19 6 -25 6 -6 8 -11 3 -11 -4 0 -15 7
-23 16 -14 13 -14 17 -2 25 19 12 22 11 16 -5z m223 10 c0 -3 -4 -8 -10 -11
-5 -3 -10 -1 -10 4 0 6 5 11 10 11 6 0 10 -2 10 -4z m47 -2 c-3 -3 -12 -4 -19
-1 -8 3 -5 6 6 6 11 1 17 -2 13 -5z m683 -4 c0 -5 -2 -10 -4 -10 -3 0 -8 5
-11 10 -3 6 -1 10 4 10 6 0 11 -4 11 -10z m60 0 c0 -5 -7 -10 -16 -10 -8 0
-12 5 -9 10 3 6 10 10 16 10 5 0 9 -4 9 -10z m420 6 c0 -3 -4 -8 -10 -11 -5
-3 -10 -1 -10 4 0 6 5 11 10 11 6 0 10 -2 10 -4z m65 -6 c3 -5 1 -10 -4 -10
-6 0 -11 5 -11 10 0 6 2 10 4 10 3 0 8 -4 11 -10z m-1885 -4 c0 -3 -4 -8 -10
-11 -5 -3 -10 -1 -10 4 0 6 5 11 10 11 6 0 10 -2 10 -4z m1165 -6 c3 -5 1 -10
-4 -10 -6 0 -11 5 -11 10 0 6 2 10 4 10 3 0 8 -4 11 -10z m805 6 c0 -3 -4 -8
-10 -11 -5 -3 -10 -1 -10 4 0 6 5 11 10 11 6 0 10 -2 10 -4z m75 -6 c3 -5 2
-10 -4 -10 -5 0 -13 5 -16 10 -3 6 -2 10 4 10 5 0 13 -4 16 -10z m-2345 -32
c0 -12 -14 -10 -28 4 -19 19 -14 29 8 16 11 -7 20 -16 20 -20z m1535 23 c3 -5
1 -12 -5 -16 -5 -3 -10 1 -10 9 0 18 6 21 15 7z m975 5 c0 -11 -19 -15 -25 -6
-3 5 1 10 9 10 9 0 16 -2 16 -4z m1080 -11 c0 -8 -4 -15 -10 -15 -5 0 -7 7 -4
15 4 8 8 15 10 15 2 0 4 -7 4 -15z m-3660 -9 c0 -8 3 -21 6 -30 3 -9 2 -16 -4
-16 -5 0 -12 14 -14 30 -3 17 -1 30 4 30 4 0 8 -6 8 -14z m145 -7 c-10 -15
-25 -10 -19 6 4 8 10 12 15 9 5 -3 7 -10 4 -15z m875 11 c0 -5 -4 -10 -10 -10
-5 0 -10 5 -10 10 0 6 5 10 10 10 6 0 10 -4 10 -10z m60 0 c0 -5 -2 -10 -4
-10 -3 0 -8 5 -11 10 -3 6 -1 10 4 10 6 0 11 -4 11 -10z m847 4 c-3 -3 -12 -4
-19 -1 -8 3 -5 6 6 6 11 1 17 -2 13 -5z m139 -31 c-11 -11 -17 4 -9 23 7 18 8
18 11 1 2 -10 1 -21 -2 -24z m-1336 -24 c-16 -28 -22 -19 -14 21 6 25 9 29 16
16 5 -10 5 -24 -2 -37z m610 47 c0 -2 -9 -6 -20 -9 -11 -3 -20 -1 -20 4 0 5 9
9 20 9 11 0 20 -2 20 -4z m780 -3 c-1 -18 -18 -35 -24 -24 -4 6 -4 16 -1 21 7
12 25 13 25 3z m870 -9 c0 -8 -5 -12 -10 -9 -6 4 -8 11 -5 16 9 14 15 11 15
-7z m1267 -6 c-3 -8 -6 -5 -6 6 -1 11 2 17 5 13 3 -3 4 -12 1 -19z m-3787 -14
c0 -8 -4 -12 -10 -9 -5 3 -10 13 -10 21 0 8 5 12 10 9 6 -3 10 -13 10 -21z
m114 -5 c-25 -27 -37 -23 -18 6 9 14 20 22 26 19 5 -3 2 -14 -8 -25z m91 11
c-20 -22 -31 -20 -22 5 4 8 14 15 23 15 16 0 16 -2 -1 -20z m1038 13 c-7 -2
-19 -2 -25 0 -7 3 -2 5 12 5 14 0 19 -2 13 -5z m437 -3 c0 -5 -2 -10 -4 -10
-3 0 -8 5 -11 10 -3 6 -1 10 4 10 6 0 11 -4 11 -10z m1610 -12 c0 -19 -2 -20
-10 -8 -13 19 -13 30 0 30 6 0 10 -10 10 -22z m-3650 -3 c0 -8 -2 -15 -4 -15
-2 0 -6 7 -10 15 -3 8 -1 15 4 15 6 0 10 -7 10 -15z m77 -11 c-9 -9 -28 6 -21
18 4 6 10 6 17 -1 6 -6 8 -13 4 -17z m163 16 c0 -5 -7 -7 -15 -4 -8 4 -15 8
-15 10 0 2 7 4 15 4 8 0 15 -4 15 -10z m1150 6 c0 -3 -4 -8 -10 -11 -5 -3 -10
-1 -10 4 0 6 5 11 10 11 6 0 10 -2 10 -4z m1155 -5 c3 -5 1 -12 -5 -16 -5 -3
-10 1 -10 9 0 18 6 21 15 7z m-1755 -5 c0 -3 -4 -8 -10 -11 -5 -3 -10 -1 -10
4 0 6 5 11 10 11 6 0 10 -2 10 -4z m410 -17 c0 -5 -4 -9 -10 -9 -5 0 -10 7
-10 16 0 8 5 12 10 9 6 -3 10 -10 10 -16z m905 12 c3 -5 1 -12 -5 -16 -5 -3
-10 1 -10 9 0 18 6 21 15 7z m515 -6 c0 -8 -4 -15 -10 -15 -5 0 -7 7 -4 15 4
8 8 15 10 15 2 0 4 -7 4 -15z m-2330 -27 c0 -29 -1 -30 -14 -13 -10 14 -11 22
-2 31 15 18 16 18 16 -18z m130 22 c0 -5 -4 -10 -10 -10 -5 0 -10 5 -10 10 0
6 5 10 10 10 6 0 10 -4 10 -10z m240 2 c0 -5 -7 -9 -15 -9 -8 0 -15 4 -15 9 0
4 7 8 15 8 8 0 15 -4 15 -8z m887 -7 c0 -8 -4 -12 -9 -9 -4 3 -8 9 -8 15 0 5
4 9 8 9 5 0 9 -7 9 -15z m2303 11 c0 -3 -4 -8 -10 -11 -5 -3 -10 -1 -10 4 0 6
5 11 10 11 6 0 10 -2 10 -4z m-3125 -16 c-3 -5 -10 -10 -16 -10 -5 0 -9 5 -9
10 0 6 7 10 16 10 8 0 12 -4 9 -10z m-495 -10 c0 -5 -4 -10 -10 -10 -5 0 -10
5 -10 10 0 6 5 10 10 10 6 0 10 -4 10 -10z m3710 0 c0 -5 -4 -10 -10 -10 -5 0
-10 5 -10 10 0 6 5 10 10 10 6 0 10 -4 10 -10z m-3074 -21 c19 -22 19 -22 -3
-10 -24 12 -39 31 -25 31 5 0 17 -10 28 -21z m109 11 c-3 -5 -11 -10 -16 -10
-6 0 -7 5 -4 10 3 6 11 10 16 10 6 0 7 -4 4 -10z m512 -16 c10 -22 9 -25 -5
-22 -9 2 -18 13 -18 26 -2 29 8 28 23 -4z m212 0 c3 -16 1 -17 -13 -5 -19 16
-21 34 -3 29 6 -3 14 -13 16 -24z m291 15 c0 -5 -5 -7 -11 -3 -6 3 -15 1 -19
-6 -5 -9 -8 -8 -12 2 -4 9 2 14 18 16 13 1 24 -3 24 -9z m-1560 -9 c0 -5 -4
-10 -10 -10 -5 0 -10 5 -10 10 0 6 5 10 10 10 6 0 10 -4 10 -10z m380 0 c0 -5
-4 -10 -10 -10 -5 0 -10 5 -10 10 0 6 5 10 10 10 6 0 10 -4 10 -10z m2435 -10
c3 -5 1 -10 -4 -10 -6 0 -11 5 -11 10 0 6 2 10 4 10 3 0 8 -4 11 -10z m-3614
-23 c-10 -9 -11 -8 -5 6 3 10 9 15 12 12 3 -3 0 -11 -7 -18z m910 8 c8 3 20
-4 26 -15 11 -17 10 -19 -5 -14 -34 11 -62 28 -62 37 0 5 6 4 14 -2 7 -6 20
-9 27 -6z m709 11 c0 -3 -4 -8 -10 -11 -5 -3 -10 -1 -10 4 0 6 5 11 10 11 6 0
10 -2 10 -4z m1388 -5 c11 -7 11 -9 -2 -14 -9 -4 -16 -2 -16 4 0 6 -7 9 -15 5
-8 -3 -15 -1 -15 4 0 12 30 13 48 1z m-2553 -39 c-3 -4 -10 0 -15 8 -6 9 -5
17 3 22 13 8 24 -19 12 -30z m611 24 c10 -8 17 -17 14 -19 -3 -3 -16 3 -29 14
-27 22 -15 26 15 5z m622 7 c-10 -2 -18 -9 -18 -14 0 -6 -4 -7 -10 -4 -19 12
-10 25 18 24 16 -1 20 -3 10 -6z m2102 -3 c0 -5 -5 -10 -11 -10 -5 0 -7 5 -4
10 3 6 8 10 11 10 2 0 4 -4 4 -10z m-2540 -4 c0 -2 -7 -7 -16 -10 -8 -3 -12
-2 -9 4 6 10 25 14 25 6z m795 -6 c3 -5 -1 -10 -9 -10 -9 0 -16 5 -16 10 0 6
4 10 9 10 6 0 13 -4 16 -10z m-1885 -9 c0 -5 -7 -12 -16 -15 -14 -5 -15 -4 -4
9 14 17 20 19 20 6z m874 -6 c3 -8 1 -15 -4 -15 -6 0 -10 7 -10 15 0 8 2 15 4
15 2 0 6 -7 10 -15z m133 -7 c-3 -8 -6 -5 -6 6 -1 11 2 17 5 13 3 -3 4 -12 1
-19z m-837 2 c0 -5 -4 -10 -10 -10 -5 0 -10 5 -10 10 0 6 5 10 10 10 6 0 10
-4 10 -10z m1173 -11 c4 -15 2 -19 -10 -15 -8 3 -17 6 -19 6 -2 0 -4 7 -4 15
0 23 27 18 33 -6z m-1403 1 c0 -5 -2 -10 -4 -10 -3 0 -8 5 -11 10 -3 6 -1 10
4 10 6 0 11 -4 11 -10z m324 -25 c-4 -8 -10 -15 -15 -15 -4 0 -6 7 -3 15 4 8
10 15 15 15 4 0 6 -7 3 -15z m1386 4 c0 -5 4 -7 10 -4 6 3 7 -1 4 -10 -5 -12
-9 -13 -20 -4 -16 13 -18 29 -4 29 6 0 10 -5 10 -11z m620 1 c0 -5 -4 -10 -10
-10 -5 0 -10 5 -10 10 0 6 5 10 10 10 6 0 10 -4 10 -10z m-1400 -10 c0 -5 -4
-10 -10 -10 -5 0 -10 5 -10 10 0 6 5 10 10 10 6 0 10 -4 10 -10z m940 6 c0 -3
-4 -8 -10 -11 -5 -3 -10 -1 -10 4 0 6 5 11 10 11 6 0 10 -2 10 -4z m-843 -32
c2 -5 -8 -10 -22 -10 -21 -2 -24 1 -14 12 13 15 31 14 36 -2z m430 10 c-3 -3
-12 -4 -19 -1 -8 3 -5 6 6 6 11 1 17 -2 13 -5z m503 -9 c-14 -17 -30 -20 -30
-6 0 5 8 12 18 14 9 3 19 5 21 6 2 0 -2 -6 -9 -14z m2615 5 c3 -6 -1 -7 -9 -4
-18 7 -21 14 -7 14 6 0 13 -4 16 -10z m-3908 -6 c-3 -3 -12 -4 -19 -1 -8 3 -5
6 6 6 11 1 17 -2 13 -5z m56 -1 c-7 -2 -19 -2 -25 0 -7 3 -2 5 12 5 14 0 19
-2 13 -5z m447 -11 c0 -10 -5 -10 -22 -1 -34 17 -34 19 -5 17 15 -1 27 -8 27
-16z m1335 8 c-3 -5 -11 -10 -16 -10 -6 0 -7 5 -4 10 3 6 11 10 16 10 6 0 7
-4 4 -10z m-2100 -10 c-3 -5 -10 -10 -16 -10 -5 0 -9 5 -9 10 0 6 7 10 16 10
8 0 12 -4 9 -10z m1175 0 c0 -5 -5 -10 -11 -10 -5 0 -7 5 -4 10 3 6 8 10 11
10 2 0 4 -4 4 -10z m-825 -10 c-3 -5 -11 -10 -16 -10 -6 0 -7 5 -4 10 3 6 11
10 16 10 6 0 7 -4 4 -10z m1585 0 c0 -5 -7 -10 -16 -10 -8 0 -12 5 -9 10 3 6
10 10 16 10 5 0 9 -4 9 -10z m-466 -15 c-4 -8 -8 -15 -10 -15 -2 0 -4 7 -4 15
0 8 4 15 10 15 5 0 7 -7 4 -15z m596 5 c0 -5 -4 -10 -10 -10 -5 0 -10 5 -10
10 0 6 5 10 10 10 6 0 10 -4 10 -10z m295 0 c3 -5 1 -10 -4 -10 -6 0 -11 5
-11 10 0 6 2 10 4 10 3 0 8 -4 11 -10z m-385 -10 c0 -5 -4 -10 -10 -10 -5 0
-10 5 -10 10 0 6 5 10 10 10 6 0 10 -4 10 -10z m-1960 -4 c0 -2 -9 -6 -20 -9
-11 -3 -18 -1 -14 4 5 9 34 13 34 5z m1350 -36 c0 -5 -2 -10 -4 -10 -3 0 -8 5
-11 10 -3 6 -1 10 4 10 6 0 11 -4 11 -10z m1303 -7 c-4 -10 -9 -11 -19 -2 -18
15 -18 15 5 15 11 0 17 -5 14 -13z m-1183 -3 c0 -5 -2 -10 -4 -10 -3 0 -8 5
-11 10 -3 6 -1 10 4 10 6 0 11 -4 11 -10z m-840 -20 c0 -5 -2 -10 -4 -10 -3 0
-8 5 -11 10 -3 6 -1 10 4 10 6 0 11 -4 11 -10z m-693 -22 c-3 -8 -6 -5 -6 6
-1 11 2 17 5 13 3 -3 4 -12 1 -19z m2250 16 c-3 -3 -12 -4 -19 -1 -8 3 -5 6 6
6 11 1 17 -2 13 -5z m-2347 -8 c0 -3 -4 -8 -10 -11 -5 -3 -10 -1 -10 4 0 6 5
11 10 11 6 0 10 -2 10 -4z m997 -18 c-3 -8 -6 -5 -6 6 -1 11 2 17 5 13 3 -3 4
-12 1 -19z m633 7 c0 -10 -41 -11 -49 -1 -8 10 -3 11 19 8 17 -2 30 -5 30 -7z
m265 5 c3 -5 -1 -10 -10 -10 -9 0 -13 5 -10 10 3 6 8 10 10 10 2 0 7 -4 10
-10z m160 0 c3 -5 1 -10 -4 -10 -6 0 -11 5 -11 10 0 6 2 10 4 10 3 0 8 -4 11
-10z m982 -22 c-3 -7 -5 -2 -5 12 0 14 2 19 5 13 2 -7 2 -19 0 -25z m-2446
-55 c-8 -15 -10 -15 -11 -2 0 17 10 32 18 25 2 -3 -1 -13 -7 -23z m3164 18 c3
-5 1 -12 -5 -16 -5 -3 -10 1 -10 9 0 18 6 21 15 7z m-2364 -28 c10 -12 11 -15
1 -9 -7 4 -19 3 -27 -4 -11 -9 -12 -7 -8 9 6 25 16 26 34 4z m569 13 c0 -3 -4
-8 -10 -11 -5 -3 -10 -1 -10 4 0 6 5 11 10 11 6 0 10 -2 10 -4z m-1250 -26 c0
-5 -4 -10 -10 -10 -5 0 -10 5 -10 10 0 6 5 10 10 10 6 0 10 -4 10 -10z m1560
-50 c0 -5 -4 -10 -10 -10 -5 0 -10 5 -10 10 0 6 5 10 10 10 6 0 10 -4 10 -10z
m150 0 c0 -5 -4 -10 -10 -10 -5 0 -10 5 -10 10 0 6 5 10 10 10 6 0 10 -4 10
-10z m-310 -4 c0 -2 -7 -7 -16 -10 -8 -3 -12 -2 -9 4 6 10 25 14 25 6z m-1095
-16 c3 -5 1 -10 -4 -10 -6 0 -11 5 -11 10 0 6 2 10 4 10 3 0 8 -4 11 -10z
m1500 -10 c3 -5 1 -10 -4 -10 -6 0 -11 5 -11 10 0 6 2 10 4 10 3 0 8 -4 11
-10z m2292 -312 c-3 -8 -6 -5 -6 6 -1 11 2 17 5 13 3 -3 4 -12 1 -19z m-3510
-4420 c-3 -8 -6 -5 -6 6 -1 11 2 17 5 13 3 -3 4 -12 1 -19z m54 -47 c-10 -14
-29 -35 -41 -46 l-23 -20 8 23 c5 17 2 27 -12 37 -14 10 -15 16 -6 25 8 9 14
7 23 -10 9 -17 14 -19 26 -9 8 6 14 18 14 25 0 8 6 11 15 8 13 -5 12 -10 -4
-33z m-91 0 c0 -6 -5 -13 -10 -16 -6 -4 -8 -10 -6 -14 3 -4 -1 -8 -9 -8 -18 0
-18 3 -5 28 11 20 30 26 30 10z m20 -75 c0 -2 -13 -20 -30 -41 -16 -21 -30
-34 -30 -28 0 5 6 15 12 21 10 10 10 15 -2 23 -12 8 -10 9 6 4 14 -4 24 0 28
10 5 13 16 21 16 11z m-100 -26 c0 -5 -7 -10 -16 -10 -8 0 -12 5 -9 10 3 6 10
10 16 10 5 0 9 -4 9 -10z m20 -67 c0 -7 -63 -83 -70 -83 -3 0 -6 8 -6 18 -1 9
-5 25 -9 36 -8 18 -7 18 19 1 27 -18 27 -18 23 6 -4 20 0 24 19 25 13 1 24 0
24 -3z m-96 -68 c3 -8 1 -15 -4 -15 -6 0 -10 7 -10 15 0 8 2 15 4 15 2 0 6 -7
10 -15z m-12 -62 c-38 -48 -72 -79 -72 -66 0 9 90 103 98 103 2 0 -10 -17 -26
-37z m1575 -145 c-3 -8 -6 -5 -6 6 -1 11 2 17 5 13 3 -3 4 -12 1 -19z m-1872
2 c3 -5 2 -10 -4 -10 -5 0 -13 5 -16 10 -3 6 -2 10 4 10 5 0 13 -4 16 -10z
m3840 -50 c-3 -5 -10 -10 -16 -10 -5 0 -9 5 -9 10 0 6 7 10 16 10 8 0 12 -4 9
-10z m-207 -22 c9 -9 12 -9 12 0 0 7 5 12 12 12 9 0 8 -5 -2 -15 -16 -15 -64
-10 -54 6 7 12 18 11 32 -3z m-138 -18 c0 -5 -4 -10 -10 -10 -5 0 -10 5 -10
10 0 6 5 10 10 10 6 0 10 -4 10 -10z m-96 -16 c8 -21 -2 -33 -13 -15 -6 8 -14
10 -22 5 -12 -6 -12 -5 0 9 17 21 27 22 35 1z m-324 -9 c-7 -8 -8 -15 -3 -15
5 0 9 -9 10 -20 1 -11 -2 -20 -8 -20 -5 0 -9 7 -9 17 0 15 -2 15 -19 -1 -12
-11 -21 -14 -26 -7 -3 6 1 11 11 11 13 0 14 3 4 15 -10 12 -8 16 11 24 35 14
43 13 29 -4z m40 0 c0 -8 -4 -15 -10 -15 -5 0 -10 7 -10 15 0 8 5 15 10 15 6
0 10 -7 10 -15z m1094 -16 c-10 -16 -24 -9 -24 12 0 18 2 19 15 9 8 -7 12 -16
9 -21z m656 12 c0 -11 5 -23 11 -27 8 -4 8 -9 -1 -18 -8 -8 -13 -7 -20 4 -5 8
-10 11 -10 6 0 -5 -7 -3 -15 4 -8 6 -19 9 -24 5 -7 -3 -8 0 -5 9 4 11 0 16
-10 16 -9 0 -16 -4 -16 -10 0 -5 -7 -10 -15 -10 -8 0 -15 -7 -15 -16 0 -14 -2
-14 -16 -3 -15 12 -16 10 -10 -19 5 -21 4 -32 -3 -32 -6 0 -11 11 -11 25 0 14
-5 25 -11 25 -6 0 -8 -8 -4 -19 5 -16 2 -18 -15 -14 -12 3 -20 14 -20 25 0 17
-5 19 -25 14 -15 -4 -25 -2 -25 4 0 6 5 8 10 5 6 -3 10 1 10 9 0 10 -6 13 -15
10 -8 -4 -15 -10 -15 -15 0 -5 -8 -9 -17 -9 -15 0 -13 -4 7 -20 24 -19 24 -20
3 -20 -12 0 -23 -6 -26 -12 -6 -20 -37 10 -37 36 0 42 13 48 119 53 82 5 101
3 101 -8 0 -10 3 -10 8 -3 8 14 35 21 80 23 25 1 32 -3 32 -18z m76 2 c18 -24
17 -36 -1 -29 -9 3 -15 0 -15 -9 0 -7 9 -16 20 -20 16 -5 18 -9 7 -26 -6 -10
-19 -19 -29 -19 -9 0 -23 -7 -31 -15 -13 -12 -15 -12 -20 5 -5 19 8 26 36 21
5 -1 6 8 2 19 -3 11 -7 33 -7 50 -1 18 -7 31 -17 33 -9 3 -3 5 13 6 17 1 34
-6 42 -16z m-676 -8 c0 -8 -4 -15 -10 -15 -5 0 -10 7 -10 15 0 8 5 15 10 15 6
0 10 -7 10 -15z m122 3 c-5 -5 -20 -10 -33 -10 -13 -1 -30 -6 -37 -11 -19 -15
-25 -2 -8 16 9 8 32 15 52 15 23 0 33 -3 26 -10z m-1055 -4 c-3 -3 -12 -4 -19
-1 -8 3 -5 6 6 6 11 1 17 -2 13 -5z m773 -3 c0 -17 -20 -23 -48 -16 -25 7 -25
8 -7 15 28 12 55 12 55 1z m-120 -11 c0 -5 -5 -10 -11 -10 -5 0 -7 5 -4 10 3
6 8 10 11 10 2 0 4 -4 4 -10z m-75 -20 c-5 -15 -3 -18 9 -14 9 3 16 1 16 -5 0
-6 -6 -10 -12 -8 -7 1 -17 -12 -22 -30 -7 -21 -16 -31 -28 -30 -22 2 -24 17
-3 17 9 0 15 9 15 25 0 14 -4 25 -10 25 -5 0 -7 -7 -4 -15 4 -8 1 -15 -5 -15
-6 0 -11 2 -11 4 0 2 -3 11 -6 20 -4 11 0 16 15 16 11 0 26 7 33 15 18 20 20
19 13 -5z m225 5 c-7 -8 -17 -15 -22 -15 -6 0 -5 7 2 15 7 8 17 15 22 15 6 0
5 -7 -2 -15z m-1197 -14 c5 -22 0 -31 -20 -31 -7 0 -13 11 -13 25 0 30 25 34
33 6z m61 0 c4 -5 -3 -7 -14 -4 -23 6 -26 13 -6 13 8 0 17 -4 20 -9z m1080
-12 c-3 -5 -10 -7 -15 -3 -5 3 -7 10 -3 15 3 5 10 7 15 3 5 -3 7 -10 3 -15z
m749 -19 c-7 -25 -33 -26 -34 -2 0 13 -2 12 -9 -5 -9 -23 -34 -31 -44 -15 -7
12 6 27 39 44 34 17 55 7 48 -22z m-1342 7 c-10 -9 -11 -8 -5 6 3 10 9 15 12
12 3 -3 0 -11 -7 -18z m-611 -2 c7 -8 16 -12 21 -10 4 3 12 -3 18 -12 8 -14
11 -15 11 -3 0 12 4 10 15 -4 19 -26 19 -36 -1 -36 -9 0 -25 11 -35 25 -12 14
-26 22 -34 18 -11 -4 -14 0 -9 13 5 18 5 18 -10 0 -10 -12 -21 -16 -33 -12 -9
4 -14 4 -11 0 4 -3 1 -13 -7 -20 -7 -8 -15 -19 -18 -26 -3 -9 -12 -6 -30 11
-15 13 -33 21 -41 18 -9 -4 -18 -2 -21 3 -7 11 27 22 46 16 8 -3 37 3 64 14
63 23 60 23 75 5z m920 5 c-8 -5 -19 -10 -25 -10 -5 0 -3 5 5 10 8 5 20 10 25
10 6 0 3 -5 -5 -10z m840 -6 c0 -8 -4 -12 -10 -9 -5 3 -10 10 -10 16 0 5 5 9
10 9 6 0 10 -7 10 -16z m-890 -4 c0 -5 -7 -10 -15 -10 -8 0 -15 5 -15 10 0 6
7 10 15 10 8 0 15 -4 15 -10z m434 -5 c-4 -8 -12 -15 -19 -15 -7 0 -16 -8 -20
-17 -6 -17 -7 -17 -16 0 -11 19 -35 23 -41 6 -2 -7 -9 -10 -16 -8 -7 3 -8 9
-2 19 6 9 23 14 49 13 23 -1 41 2 41 8 0 5 7 9 15 9 9 0 12 -6 9 -15z m-489
-16 c-7 -10 -35 -1 -35 11 0 5 9 6 20 3 11 -3 17 -9 15 -14z m-60 2 c3 -5 1
-12 -5 -16 -5 -3 -10 1 -10 9 0 18 6 21 15 7z m415 2 c0 -5 3 -18 6 -31 5 -18
3 -21 -10 -16 -9 3 -16 13 -16 21 0 10 -6 13 -16 9 -19 -7 -37 2 -29 15 7 11
65 12 65 2z m330 -3 c0 -5 -4 -10 -10 -10 -5 0 -10 5 -10 10 0 6 5 10 10 10 6
0 10 -4 10 -10z m320 -16 c0 -16 -16 -19 -25 -4 -4 6 -11 8 -16 5 -10 -7 -13
8 -3 17 10 10 44 -4 44 -18z m-2537 10 c58 -10 43 -21 -23 -16 -47 3 -68 0
-102 -17 -38 -19 -40 -19 -21 -3 12 11 19 23 15 27 -4 5 -2 5 4 2 6 -3 24 -2
40 3 37 11 42 11 87 4z m506 -1 c-9 -2 -21 -14 -27 -26 -10 -21 -11 -21 -11 6
-1 23 3 27 27 26 15 -1 20 -3 11 -6z m914 0 c-13 -2 -23 -11 -23 -19 0 -17
-16 -19 -26 -3 -9 15 15 29 46 27 23 -1 24 -1 3 -5z m377 -13 c0 -11 5 -20 10
-20 6 0 10 -4 10 -10 0 -16 -16 -12 -41 10 -21 17 -22 21 -9 30 22 15 30 12
30 -10z m-450 0 c0 -9 -22 -15 -44 -11 -5 1 -6 -5 -2 -14 3 -9 6 -20 6 -24 0
-4 9 -17 20 -29 17 -18 18 -22 5 -22 -8 0 -15 5 -15 10 0 6 -7 10 -15 10 -8 0
-14 3 -14 8 4 22 -3 31 -17 25 -15 -5 -15 -4 1 20 15 24 31 33 63 36 6 0 12
-3 12 -9z m703 -11 c-4 -15 -9 -16 -24 -8 -26 14 -24 27 5 27 18 0 22 -5 19
-19z m32 11 c3 -5 1 -10 -4 -10 -6 0 -11 5 -11 10 0 6 2 10 4 10 3 0 8 -4 11
-10z m-2270 -10 c-3 -5 -13 -10 -21 -10 -8 0 -14 5 -14 10 0 6 9 10 21 10 11
0 17 -4 14 -10z m714 -16 c-16 -20 -29 -17 -29 5 0 14 5 18 20 14 16 -4 18 -8
9 -19z m1071 19 c0 -13 -39 -73 -47 -73 -4 0 -2 5 5 12 18 18 14 36 -10 44
-22 8 -22 8 7 15 43 10 45 10 45 2z m-1472 -14 c8 24 21 9 16 -19 -5 -23 -2
-31 12 -37 11 -3 22 -10 25 -15 3 -5 17 -9 30 -9 13 1 34 1 47 1 13 0 22 6 22
15 0 8 -3 14 -7 13 -10 -3 -65 33 -59 39 2 2 30 -3 61 -12 l58 -17 -6 -51 c-4
-28 -11 -53 -17 -57 -6 -4 -10 -13 -8 -20 2 -7 -8 -17 -22 -21 l-25 -7 25 -1
c19 -1 22 -4 11 -10 -10 -6 -25 -2 -49 14 -32 22 -35 22 -61 7 -26 -15 -30
-14 -56 6 l-27 21 36 -1 c19 -1 33 -5 30 -10 -3 -4 0 -8 5 -8 13 0 13 3 5 24
-3 9 -12 16 -20 16 -8 0 -14 10 -14 23 0 16 -6 23 -20 24 -23 2 -24 -1 -10
-27 7 -13 6 -19 -6 -24 -9 -3 -20 -4 -25 0 -5 3 -9 0 -9 -5 0 -6 -8 -11 -18
-11 -11 0 -24 -11 -30 -25 -17 -37 -15 -41 7 -17 19 23 46 29 56 12 3 -5 17
-10 30 -10 18 0 23 -4 19 -15 -4 -8 -15 -15 -26 -15 -15 0 -18 -5 -13 -20 4
-14 1 -22 -10 -26 -20 -8 -26 -2 -28 25 -2 25 -16 28 -16 4 0 -63 -9 -125 -20
-135 -12 -11 -12 -9 -6 7 8 18 9 55 4 88 -1 8 -12 12 -28 10 -14 -2 -20 0 -13
3 6 3 12 10 12 16 0 7 -5 7 -14 -1 -10 -8 -20 -6 -42 11 -15 13 -24 16 -20 9
7 -11 1 -13 -30 -8 l-39 6 30 -14 c17 -8 42 -14 58 -15 47 0 29 -20 -20 -21
-27 -1 -74 -3 -105 -5 l-58 -4 0 34 c0 29 3 33 20 29 13 -4 26 1 35 13 8 11
14 14 15 7 0 -22 30 -14 30 7 0 11 -4 20 -8 20 -14 0 -42 68 -36 85 4 10 13
13 24 10 10 -3 21 -1 25 5 9 14 55 13 55 -2 0 -7 5 -5 11 4 8 15 20 17 64 14
45 -3 53 -1 48 12 -4 10 -2 13 5 8 7 -4 12 -14 12 -22 0 -9 6 -14 13 -11 6 2
11 11 9 21 -2 10 4 16 18 16 11 0 20 5 20 11 0 5 -5 7 -12 3 -7 -4 -8 -3 -4 5
4 6 2 19 -6 28 -12 15 -11 15 12 3 17 -9 25 -10 28 -1z m1108 0 c4 -7 -1 -16
-10 -21 -24 -14 -20 -54 7 -63 18 -6 15 -8 -22 -16 -41 -8 -72 -2 -43 8 17 6
15 23 -3 23 -8 0 -15 7 -15 15 0 8 6 15 14 15 7 0 16 9 19 21 3 12 10 18 16
14 6 -3 11 -1 11 4 0 14 17 14 26 0z m277 4 c-7 -2 -19 -2 -25 0 -7 3 -2 5 12
5 14 0 19 -2 13 -5z m161 -15 c14 -22 6 -29 -44 -35 -42 -6 -42 -6 -30 18 23
43 53 50 74 17z m-964 -3 c11 -13 10 -14 -4 -9 -9 3 -16 10 -16 15 0 13 6 11
20 -6z m452 0 c-2 -5 -10 -9 -18 -7 -8 2 -14 -2 -14 -9 0 -7 -9 -9 -26 -5 -19
5 -24 4 -18 -6 6 -10 4 -10 -9 0 -9 8 -21 11 -27 7 -5 -3 -10 -2 -10 4 0 11
73 30 105 28 11 -1 19 -6 17 -12z m288 -7 c0 -16 -3 -19 -11 -11 -6 6 -8 16
-5 22 11 17 16 13 16 -11z m402 0 c-6 -6 -15 -8 -19 -4 -4 4 -1 11 7 16 19 12
27 3 12 -12z m-1468 -47 c-7 -7 -12 3 -18 34 l-6 30 14 -30 c8 -16 12 -32 10
-34z m1396 49 c0 -5 -4 -10 -10 -10 -5 0 -10 5 -10 10 0 6 5 10 10 10 6 0 10
-4 10 -10z m-359 -17 c13 -15 12 -15 -8 -4 -24 12 -29 21 -14 21 5 0 15 -7 22
-17z m-756 -11 c-3 -3 -11 0 -18 7 -9 10 -8 11 6 5 10 -3 15 -9 12 -12z m310
8 c19 -8 19 -9 -1 -9 -16 -1 -23 -9 -26 -31 -4 -28 -3 -30 29 -27 18 1 33 5
33 10 0 4 -4 7 -10 7 -5 0 -10 4 -10 10 0 5 7 7 15 4 18 -7 20 7 3 24 -9 9 -8
12 5 12 9 0 16 -3 16 -7 -1 -5 0 -10 1 -13 1 -3 2 -20 3 -38 2 -37 -1 -38 -93
-46 -30 -3 -80 -8 -111 -12 -51 -6 -57 -5 -61 13 -4 16 -1 19 13 16 11 -3 19
-9 19 -14 0 -5 5 -9 11 -9 13 0 1 42 -15 52 -5 4 -16 2 -23 -4 -17 -14 -25 -6
-17 16 3 9 17 16 31 16 18 0 28 -9 39 -36 8 -19 20 -34 26 -32 20 7 20 26 1
31 -15 4 -15 5 -2 6 9 0 22 -6 29 -14 7 -8 17 -15 22 -15 6 0 8 7 4 15 -3 8
-1 15 4 15 6 0 10 9 10 21 0 11 -4 17 -10 14 -5 -3 -10 1 -10 10 0 11 5 15 15
11 8 -3 15 -1 15 4 0 12 18 12 45 0z m-475 -14 c0 -8 -6 -16 -12 -19 -10 -3
-10 -7 0 -20 8 -9 12 -22 9 -29 -4 -9 -6 -7 -6 4 -1 9 -6 18 -13 20 -7 3 -9
14 -4 31 7 28 26 38 26 13z m361 2 c0 -10 2 -10 6 0 6 15 23 16 23 2 0 -11
-50 -34 -57 -27 -6 7 9 37 18 37 5 0 9 -6 10 -12z m259 -8 c0 -5 -7 -10 -16
-10 -8 0 -12 5 -9 10 3 6 10 10 16 10 5 0 9 -4 9 -10z m408 3 c-10 -2 -26 -2
-35 0 -10 3 -2 5 17 5 19 0 27 -2 18 -5z m-71 -9 c-3 -3 -12 -4 -19 -1 -8 3
-5 6 6 6 11 1 17 -2 13 -5z m-712 -14 c3 -5 -6 -17 -20 -26 -18 -12 -25 -24
-24 -48 l1 -31 11 28 c6 15 15 27 20 27 10 0 36 -30 37 -41 0 -9 -58 -21 -102
-21 -21 0 -36 -3 -33 -7 2 -4 -21 -12 -51 -18 -56 -10 -65 -7 -71 27 -1 8 0
22 4 30 6 16 9 26 11 48 2 9 14 13 41 11 21 -2 45 2 53 8 7 7 34 13 58 16 25
2 48 4 52 5 4 1 9 -2 13 -8z m405 -12 c0 -12 -3 -18 -7 -15 -3 4 -12 2 -20 -4
-17 -15 -18 6 0 26 18 20 27 18 27 -7z m-69 -29 c-21 -9 -35 5 -27 27 6 16 8
16 25 -2 16 -17 16 -20 2 -25z m-1321 -41 c0 -62 -5 -60 -13 5 -4 28 -3 47 3
47 6 0 10 -23 10 -52z m601 0 c10 -18 9 -20 -6 -15 -9 4 -19 7 -21 7 -2 0 -4
7 -4 15 0 22 18 18 31 -7z m-554 -33 c-2 -5 -10 -10 -18 -11 -9 -1 -10 1 -1 3
15 5 16 19 2 28 -5 3 -10 12 -10 18 0 7 7 3 15 -8 9 -10 14 -24 12 -30z m603
34 c0 -10 -27 -19 -34 -12 -12 12 -5 22 14 20 11 -1 20 -4 20 -8z m51 -42 c33
-28 74 -93 83 -132 4 -19 -6 -7 -29 35 -19 36 -50 77 -68 92 -17 15 -27 27
-22 27 6 0 22 -10 36 -22z m-282 -20 c14 -17 5 -26 -19 -20 -11 3 -16 11 -13
19 7 18 17 18 32 1z m55 -6 c3 -5 -1 -12 -10 -15 -22 -9 -24 -8 -24 9 0 16 25
21 34 6z m-1779 -151 c3 -5 -1 -10 -9 -10 -9 0 -16 5 -16 10 0 6 4 10 9 10 6
0 13 -4 16 -10z m2102 -12 c-3 -8 -6 -5 -6 6 -1 11 2 17 5 13 3 -3 4 -12 1
-19z m10 -60 c-3 -7 -5 -2 -5 12 0 14 2 19 5 13 2 -7 2 -19 0 -25z m-581 -14
c-4 -9 -9 -15 -11 -12 -3 3 -3 13 1 22 4 9 9 15 11 12 3 -3 3 -13 -1 -22z
m-35 -115 c-6 -16 -10 -18 -10 -7 -1 22 12 55 16 42 2 -6 -1 -22 -6 -35z m536
-45 c-9 -9 -28 6 -21 18 4 6 10 6 17 -1 6 -6 8 -13 4 -17z m93 -17 c0 -15 -9
-35 -20 -44 -21 -18 -27 -53 -10 -53 6 0 10 -7 10 -15 0 -8 5 -15 10 -15 14 0
12 28 -2 32 -8 3 -7 11 5 28 l17 24 0 -44 c0 -25 3 -56 6 -70 6 -24 6 -24 -9
-5 -13 17 -18 18 -29 6 -10 -11 -10 -14 -1 -18 10 -4 9 -8 -1 -19 -20 -20 -28
-17 -21 6 6 19 4 19 -20 8 -21 -9 -28 -9 -34 0 -8 13 -41 6 -52 -11 -10 -14
-29 1 -22 18 3 9 -1 15 -11 15 -9 0 -16 5 -16 10 0 6 13 10 29 10 33 0 47 23
25 40 -10 9 -14 9 -14 1 0 -14 -47 -15 -55 0 -5 6 -12 4 -21 -8 -18 -24 -17
-43 2 -43 8 0 12 -5 9 -10 -4 -6 -11 -7 -17 -4 -7 4 -8 -4 -3 -25 5 -24 3 -31
-9 -31 -9 0 -16 7 -16 15 0 9 -9 15 -21 15 -18 0 -19 2 -5 15 8 8 19 15 25 15
17 0 13 19 -8 37 -23 19 -81 45 -79 35 1 -4 -2 -17 -6 -30 -5 -14 -3 -28 4
-37 15 -18 -1 -20 -18 -3 -15 15 -22 8 -32 -36 -6 -28 -5 -36 6 -36 7 0 16 11
20 25 5 19 9 23 19 15 13 -11 9 -50 -5 -50 -4 0 -10 -7 -14 -15 -3 -9 0 -15 9
-15 8 0 15 6 15 14 0 15 50 60 57 52 8 -8 -19 -51 -48 -76 -15 -14 -32 -37
-38 -51 -8 -23 -7 -28 10 -32 30 -8 59 4 59 24 0 10 -4 20 -10 24 -5 3 -7 12
-4 20 5 13 8 13 21 0 8 -8 17 -15 21 -15 4 0 12 -11 18 -24 10 -23 9 -24 -40
-34 -28 -6 -73 -14 -101 -17 -27 -3 -61 -8 -73 -11 -17 -3 -23 -1 -20 8 3 8
17 12 35 10 25 -3 35 3 52 26 25 36 25 38 5 46 -8 3 -12 2 -9 -4 3 -6 0 -10
-8 -10 -8 0 -14 -8 -13 -17 1 -15 -8 -18 -46 -18 -56 -1 -69 -10 -42 -30 18
-14 18 -14 -7 -15 -25 0 -27 3 -33 62 -3 34 -2 66 3 71 5 5 7 16 4 24 -5 12
-7 12 -14 2 -6 -10 -11 -6 -18 14 -25 66 -36 167 -18 167 8 0 8 3 -1 9 -9 5 0
10 29 15 25 4 46 3 53 -4 7 -7 1 -10 -20 -11 l-29 -1 30 -7 c30 -7 55 6 55 28
0 6 20 11 45 11 33 0 45 -4 45 -15 0 -8 9 -19 19 -25 26 -13 31 -13 31 5 0 22
18 18 25 -5 7 -22 18 -25 45 -10 14 7 23 6 34 -6 15 -14 16 -13 16 7 0 22 0
22 16 3 13 -16 15 -16 10 -2 -8 27 13 32 38 9 12 -12 31 -21 42 -21 10 0 15 4
9 8 -5 4 -11 13 -13 20 -2 10 2 10 18 2 15 -8 20 -19 18 -37 -2 -16 3 -28 11
-31 8 -3 11 0 7 7 -4 6 -2 11 3 11 6 0 11 5 11 12 0 7 12 25 27 40 21 22 24
31 15 40 -9 9 -12 7 -12 -10 0 -22 -24 -30 -35 -12 -3 6 -17 10 -31 10 -33 0
-30 20 4 22 15 0 32 2 37 3 6 2 15 3 20 4 6 1 3 6 -5 11 -11 7 -6 9 17 7 29
-2 33 -6 33 -30z m-232 -12 c-24 -37 -45 -45 -54 -21 -3 8 -11 13 -19 10 -7
-3 -15 2 -18 10 -4 9 -3 16 1 16 23 2 88 13 91 16 2 2 8 4 13 4 4 0 -2 -16
-14 -35z m82 19 c0 -8 -4 -12 -10 -9 -5 3 -10 10 -10 16 0 5 5 9 10 9 6 0 10
-7 10 -16z m-493 -89 c-2 -54 0 -98 6 -102 5 -3 3 -10 -4 -15 -11 -7 -11 -11
-1 -15 6 -2 12 -16 12 -29 0 -13 5 -24 10 -24 6 0 10 -12 10 -27 0 -16 4 -34
9 -42 6 -10 3 -20 -12 -33 -17 -14 -18 -17 -4 -12 9 3 17 1 17 -5 0 -7 -25
-11 -69 -11 -38 0 -76 -3 -85 -6 -20 -8 -22 19 -2 35 11 9 17 8 29 -4 18 -18
37 -20 37 -4 0 8 4 8 15 -1 11 -10 18 -9 30 3 9 10 11 18 5 22 -5 3 -10 2 -10
-4 0 -10 -75 -5 -92 5 -13 8 -38 -16 -38 -36 0 -16 -3 -17 -25 -7 -29 14 -32
24 -7 30 14 4 13 5 -4 6 -31 2 -47 -19 -26 -35 15 -12 14 -13 -14 -14 -27 0
-75 33 -66 46 1 2 2 14 2 25 0 16 -5 20 -20 16 -26 -7 -25 1 1 29 12 12 27 20
34 18 25 -10 24 13 0 26 -25 13 -35 40 -15 40 6 0 10 -4 10 -10 0 -5 14 -10
30 -10 17 0 30 -3 30 -7 0 -5 11 -8 24 -8 18 0 22 3 14 12 -5 6 -17 9 -26 6
-15 -6 -15 -5 -3 11 8 9 20 15 28 12 15 -6 18 20 3 29 -6 4 -17 1 -25 -5 -9
-7 -22 -9 -32 -5 -10 5 -21 7 -25 7 -12 -3 -10 9 15 73 25 65 47 83 47 38 0
-22 -2 -25 -11 -13 -8 12 -9 10 -7 -8 5 -35 21 -31 31 8 5 19 12 29 14 23 3
-7 9 -13 15 -13 6 0 7 7 4 15 -5 14 3 15 59 11 l66 -5 6 29 c10 54 14 32 10
-65z m683 80 c0 -8 8 -15 18 -15 16 -1 16 -1 0 -11 -10 -5 -15 -16 -12 -24 4
-8 1 -15 -5 -15 -6 0 -11 8 -11 18 0 9 -3 27 -6 40 -4 13 -2 22 5 22 6 0 11
-7 11 -15z m-380 -12 c0 -5 -11 -13 -25 -20 -19 -9 -25 -8 -25 1 0 7 3 16 7
19 9 9 43 9 43 0z m40 -33 c0 -5 -7 -10 -16 -10 -8 0 -12 5 -9 10 3 6 10 10
16 10 5 0 9 -4 9 -10z m350 -40 c0 -5 -4 -10 -10 -10 -5 0 -10 5 -10 10 0 6 5
10 10 10 6 0 10 -4 10 -10z m-365 -29 c-3 -5 4 -13 16 -16 29 -9 6 -24 -27
-17 -23 4 -31 21 -17 35 10 11 35 8 28 -2z m365 -11 c0 -5 -2 -10 -4 -10 -3 0
-8 5 -11 10 -3 6 -1 10 4 10 6 0 11 -4 11 -10z m13 -57 c7 -9 5 -13 -7 -13
-11 0 -16 8 -15 28 0 15 3 21 6 12 3 -8 10 -21 16 -27z m-383 17 c0 -5 -4 -10
-10 -10 -5 0 -10 5 -10 10 0 6 5 10 10 10 6 0 10 -4 10 -10z m340 -55 c0 -26
-3 -33 -15 -29 -18 7 -19 30 -2 49 17 20 17 19 17 -20z m-172 9 c17 3 36 7 41
10 18 12 18 -9 -1 -26 -12 -12 -18 -14 -18 -5 0 8 -3 9 -8 1 -7 -11 -82 -29
-82 -20 0 2 -3 13 -6 23 -4 14 -4 15 4 4 8 -11 11 -9 17 9 4 14 10 18 14 12 4
-7 21 -10 39 -8z m222 -3 c0 -5 -5 -11 -11 -13 -8 -3 -9 -17 -1 -51 9 -47 0
-68 -12 -24 -12 44 -7 97 9 97 8 0 15 -4 15 -9z m-336 -7 c20 -8 21 -33 1 -40
-8 -4 -15 -12 -15 -20 0 -8 -5 -14 -11 -14 -6 0 -8 8 -4 19 3 11 1 22 -4 26
-7 4 -7 11 2 20 15 17 12 16 31 9z m236 -24 c0 -11 -6 -20 -12 -21 -10 0 -10
-2 0 -6 18 -7 15 -20 -7 -26 -17 -4 -17 -1 -8 34 10 41 27 53 27 19z m-2520
-30 c0 -5 -4 -10 -10 -10 -5 0 -10 5 -10 10 0 6 5 10 10 10 6 0 10 -4 10 -10z
m2340 -15 c5 3 11 1 15 -5 3 -5 -1 -10 -9 -10 -9 0 -16 -7 -16 -15 0 -18 12
-19 28 -3 9 9 12 9 12 0 0 -20 -29 -26 -56 -12 -23 13 -34 50 -14 50 6 0 10
-4 10 -10 0 -5 4 -10 10 -10 5 0 8 6 6 13 -1 6 -1 9 1 4 3 -4 9 -5 13 -2z
m240 -18 c0 -20 -4 -22 -47 -18 l-48 5 40 6 c32 4 39 9 37 24 -2 11 1 15 7 11
6 -3 11 -16 11 -28z m2330 17 c0 -8 -5 -12 -10 -9 -6 4 -8 11 -5 16 9 14 15
11 15 -7z m-2443 -24 c2 -11 -2 -20 -7 -20 -6 0 -10 12 -10 27 0 29 12 24 17
-7z m-49 8 c19 -19 14 -28 -15 -28 -26 1 -26 1 -8 12 19 11 19 11 0 19 -14 5
-15 8 -4 8 8 1 20 -4 27 -11z m2522 -20 c0 -5 -6 -8 -14 -8 -9 0 -12 7 -9 21
4 16 8 17 14 7 5 -7 9 -16 9 -20z m-4993 -10 c-3 -7 -5 -2 -5 12 0 14 2 19 5
13 2 -7 2 -19 0 -25z m2262 -9 c-8 -5 -16 -3 -21 4 -14 22 -8 28 13 16 17 -9
19 -13 8 -20z m-589 0 c0 -5 -4 -8 -9 -4 -5 3 -12 1 -15 -3 -3 -5 6 -15 19
-22 31 -17 33 -34 3 -26 -13 3 -28 6 -34 6 -6 0 -10 10 -8 23 1 12 3 25 3 30
1 11 41 8 41 -4z m-1690 -19 c0 -5 -2 -10 -4 -10 -3 0 -8 5 -11 10 -3 6 -1 10
4 10 6 0 11 -4 11 -10z m-65 -50 c3 -5 1 -10 -4 -10 -6 0 -11 5 -11 10 0 6 2
10 4 10 3 0 8 -4 11 -10z m3863 -387 c11 -11 11 -13 -2 -13 -9 0 -16 6 -17 13
0 9 -2 9 -6 -1 -5 -12 -23 -7 -23 7 0 13 34 9 48 -6z m-4341 -75 c-3 -7 -5 -2
-5 12 0 14 2 19 5 13 2 -7 2 -19 0 -25z m770 -16 c-15 -3 -18 -11 -15 -33 3
-16 1 -29 -3 -29 -4 0 -5 -8 -2 -19 3 -10 -1 -22 -8 -26 -8 -5 -10 -4 -5 4 11
16 -22 26 -39 11 -9 -7 -18 -11 -21 -8 -2 3 7 13 21 22 14 9 25 21 25 27 0 21
41 69 53 62 8 -5 6 -9 -6 -11z m3603 -12 c0 -5 -5 -10 -11 -10 -5 0 -7 5 -4
10 3 6 8 10 11 10 2 0 4 -4 4 -10z m-4388 -92 c-6 -6 -7 0 -4 19 5 21 7 23 10
9 2 -10 0 -22 -6 -28z m708 -23 c0 -8 -5 -15 -10 -15 -7 0 -7 -6 -1 -19 8 -14
5 -23 -16 -41 -17 -15 -28 -19 -31 -12 -2 7 -8 12 -13 12 -4 0 -6 -6 -3 -13 3
-10 -4 -14 -26 -15 -16 0 -30 4 -30 9 0 6 -4 7 -10 4 -5 -3 -10 -1 -10 4 0 6
14 11 30 11 18 0 33 6 36 15 4 8 10 12 15 9 5 -3 9 0 9 6 0 19 32 60 46 60 8
0 14 -7 14 -15z m-719 -48 c-8 -8 -11 -7 -11 4 0 20 13 34 18 19 3 -7 -1 -17
-7 -23z m549 -66 c0 -5 -7 -14 -15 -21 -22 -19 -18 -25 18 -27 27 -2 29 0 17
10 -19 14 -14 47 6 47 14 0 16 -5 18 -45 1 -16 7 -19 33 -17 47 5 49 -15 3
-23 -22 -4 -40 -11 -40 -16 0 -5 5 -9 10 -9 6 0 10 -8 10 -18 0 -10 5 -23 12
-30 15 -15 3 -16 -23 -2 -13 7 -19 7 -19 0 0 -21 -16 -9 -29 23 -22 48 -38 60
-70 54 -35 -7 -45 1 -25 20 11 12 18 12 28 3 11 -9 16 -6 21 12 4 13 12 29 17
36 12 14 28 16 28 3z m-563 -48 c-3 -10 -5 -2 -5 17 0 19 2 27 5 18 2 -10 2
-26 0 -35z m682 35 c13 5 14 3 3 -10 -7 -9 -22 -13 -37 -10 -21 4 -23 7 -14
19 8 9 16 10 22 4 5 -5 17 -7 26 -3z m-692 -105 c-3 -10 -5 -2 -5 17 0 19 2
27 5 18 2 -10 2 -26 0 -35z m468 17 c-3 -5 -13 -10 -21 -10 -8 0 -14 5 -14 10
0 6 9 10 21 10 11 0 17 -4 14 -10z m32 -2 c-1 -33 4 -49 13 -43 6 3 10 -3 10
-15 0 -21 -24 -24 -25 -4 -1 5 -4 19 -9 31 -4 13 -4 27 -1 33 8 13 13 13 12
-2z m63 -39 c0 -6 -9 -5 -20 1 -11 6 -20 21 -20 33 l1 22 19 -24 c11 -13 20
-27 20 -32z m-170 2 c0 -12 -20 -25 -27 -18 -7 7 6 27 18 27 5 0 9 -4 9 -9z
m35 -1 c-3 -5 -10 -10 -16 -10 -5 0 -9 5 -9 10 0 6 7 10 16 10 8 0 12 -4 9
-10z m145 -28 c0 -5 -9 -20 -21 -33 l-21 -24 24 -6 c14 -3 24 0 26 8 2 7 7 13
12 13 5 0 7 -7 3 -16 -4 -11 1 -22 13 -31 18 -13 17 -15 -11 -37 -35 -28 -39
-26 -40 17 0 27 -4 32 -27 34 -20 1 -26 -3 -25 -17 1 -10 7 -16 14 -13 7 3 13
0 13 -6 0 -6 -11 -11 -23 -11 -20 0 -24 5 -25 30 0 23 4 30 19 30 10 0 19 6
19 13 0 15 31 57 43 57 4 0 7 -4 7 -8z m-570 -6 c0 -3 -4 -8 -10 -11 -5 -3
-10 -1 -10 4 0 6 5 11 10 11 6 0 10 -2 10 -4z m430 -7 c0 -5 -7 -6 -15 -3 -11
4 -15 -1 -15 -17 0 -17 -3 -20 -9 -10 -7 10 -13 11 -30 2 -12 -7 -21 -8 -20
-4 1 4 1 15 0 23 -1 13 -2 13 -11 0 -5 -8 -10 -10 -10 -4 0 6 2 13 5 15 8 9
105 7 105 -2z m-110 -44 c0 -8 -4 -15 -10 -15 -5 0 -10 7 -10 15 0 8 5 15 10
15 6 0 10 -7 10 -15z m-34 -53 c-12 -3 -15 -10 -11 -23 4 -11 2 -19 -5 -19 -8
0 -10 10 -8 25 3 13 0 26 -5 28 -6 2 -7 9 -3 16 6 9 13 8 28 -6 18 -16 18 -18
4 -21z m64 -2 c0 -5 -4 -10 -10 -10 -5 0 -10 5 -10 10 0 6 5 10 10 10 6 0 10
-4 10 -10z m-120 -50 c0 -5 -4 -10 -10 -10 -5 0 -10 5 -10 10 0 6 5 10 10 10
6 0 10 -4 10 -10z m20 -37 c0 -8 -6 -13 -13 -10 -9 3 -12 -8 -11 -39 1 -24 -2
-44 -7 -44 -4 0 -7 -9 -6 -21 1 -18 3 -18 13 -5 6 9 16 16 22 16 6 0 13 6 15
13 4 8 6 9 6 0 1 -6 -6 -18 -14 -27 -8 -8 -15 -25 -15 -38 -1 -22 -1 -22 -15
-4 -7 10 -19 15 -25 11 -8 -5 -8 -11 1 -21 16 -19 -9 -19 -47 1 -28 14 -28 15
-5 15 l23 0 -23 19 c-23 19 -23 20 -5 40 10 11 16 27 13 34 -3 9 1 14 11 13 9
0 18 6 18 14 1 8 2 21 3 28 1 14 41 33 54 25 4 -2 7 -11 7 -20z m35 17 c3 -5
1 -10 -4 -10 -6 0 -11 5 -11 10 0 6 2 10 4 10 3 0 8 -4 11 -10z m283 -12 c-2
-12 -10 -24 -18 -26 -13 -5 -13 -3 -2 11 8 9 11 21 7 27 -3 5 -1 10 5 10 6 0
10 -10 8 -22z m-164 -13 c-4 -8 -8 -15 -10 -15 -2 0 -4 7 -4 15 0 8 4 15 10
15 5 0 7 -7 4 -15z m256 1 c0 -2 -9 -6 -20 -9 -11 -3 -18 -1 -14 4 5 9 34 13
34 5z m-402 -46 c-14 -22 -24 -19 -15 5 4 8 11 15 17 15 6 0 6 -7 -2 -20z
m272 10 c0 -5 -15 -9 -32 -9 l-33 1 30 8 c17 4 31 8 33 9 1 0 2 -3 2 -9z
m-130 -20 c0 -5 -2 -10 -4 -10 -3 0 -8 5 -11 10 -3 6 -1 10 4 10 6 0 11 -4 11
-10z m62 -12 c-17 -17 -15 -31 4 -24 11 4 14 1 9 -13 -4 -15 -1 -18 21 -15 33
3 42 13 24 24 -8 5 -12 12 -8 15 8 9 48 -4 48 -15 0 -17 -52 -40 -100 -43 -28
-2 -49 -7 -48 -11 2 -4 -5 -12 -14 -17 -21 -12 -25 -44 -4 -36 28 11 51 -43
25 -58 -17 -11 -23 3 -9 20 17 20 5 32 -16 15 -26 -23 -34 6 -16 67 13 46 13
56 1 63 -7 5 -11 12 -8 15 11 10 36 -5 49 -30 14 -26 30 -25 30 2 0 9 -6 13
-15 9 -8 -3 -15 -2 -15 2 0 12 14 29 30 35 23 9 25 8 12 -5z m199 -78 c6 0 5
-8 -1 -20 -6 -11 -18 -20 -28 -19 -10 0 -12 3 -4 6 6 2 12 9 12 14 0 6 -4 7
-10 4 -5 -3 -10 1 -10 10 0 12 5 15 16 11 9 -3 20 -6 25 -6z m-167 -25 c3 -8
0 -15 -6 -15 -6 0 -4 -8 5 -18 10 -10 14 -22 10 -25 -11 -12 -23 -8 -23 8 0 8
-5 15 -12 15 -9 0 -9 3 -1 11 6 6 9 18 6 25 -3 8 -1 14 5 14 5 0 12 -7 16 -15z
m-287 -28 c4 -5 -3 -7 -17 -6 -42 4 -71 -1 -66 -10 3 -5 -3 -11 -14 -14 -11
-3 -20 -12 -20 -21 0 -20 4 -20 26 1 16 16 16 16 9 -7 -10 -32 -7 -30 -33 -23
-26 6 -22 34 9 69 11 11 19 25 19 31 0 12 72 -5 87 -20z m378 27 c13 -5 14 -8
3 -15 -19 -13 -28 -11 -28 6 0 17 2 18 25 9z m95 -29 c-7 -9 -15 -13 -19 -10
-3 3 1 10 9 15 21 14 24 12 10 -5z m-44 -10 c24 -23 22 -65 -3 -82 -15 -10
-23 -11 -28 -3 -4 7 2 14 14 17 14 3 20 12 17 26 -3 24 -25 35 -35 19 -9 -14
-53 -3 -48 12 2 6 13 10 25 8 11 -2 23 2 27 8 8 14 14 13 31 -5z m-96 -15 c0
-5 -4 -10 -10 -10 -5 0 -10 5 -10 10 0 6 5 10 10 10 6 0 10 -4 10 -10z m142
-22 c-7 -7 -12 -8 -12 -2 0 14 12 26 19 19 2 -3 -1 -11 -7 -17z m-233 -5 c-3
-21 2 -33 16 -33 8 0 15 -4 15 -10 0 -5 -4 -10 -9 -10 -6 0 -13 5 -16 10 -10
17 -32 11 -38 -10 -6 -24 12 -38 24 -19 8 11 12 10 24 -5 19 -25 19 -37 0 -30
-10 4 -15 0 -13 -12 2 -25 -21 -84 -33 -84 -5 0 -4 10 2 22 10 18 8 24 -7 35
-11 8 -18 20 -16 27 1 9 -6 12 -22 11 -29 -4 -49 16 -40 39 9 24 37 21 29 -4
-3 -11 -2 -20 4 -20 5 0 13 10 16 23 4 12 19 34 33 50 27 28 33 32 31 20z
m-279 -7 c0 -2 -7 -9 -15 -16 -12 -10 -15 -10 -15 4 0 9 7 16 15 16 8 0 15 -2
15 -4z m360 -12 c0 -8 -4 -12 -10 -9 -5 3 -10 10 -10 16 0 5 5 9 10 9 6 0 10
-7 10 -16z m-145 -4 c-3 -5 -11 -10 -16 -10 -6 0 -7 5 -4 10 3 6 11 10 16 10
6 0 7 -4 4 -10z m205 -34 c0 -26 -6 -18 -14 19 -5 22 -4 26 4 15 5 -8 10 -24
10 -34z m954 -14 c1 -17 4 -34 8 -37 11 -12 -3 -34 -18 -28 -9 3 -14 -2 -14
-17 0 -14 -4 -19 -12 -13 -8 4 -6 -3 3 -18 15 -22 15 -28 2 -52 -7 -15 -18
-25 -23 -22 -9 5 -14 -7 -12 -26 1 -4 -9 -9 -22 -11 -20 -4 -23 -2 -16 11 5 9
11 24 14 34 3 10 9 16 13 14 5 -3 8 7 9 22 2 54 14 81 39 87 29 7 29 5 11 38
-8 15 -11 36 -9 47 8 28 25 9 27 -29z m36 34 c0 -2 -7 -7 -16 -10 -8 -3 -12
-2 -9 4 6 10 25 14 25 6z m-1440 -18 c0 -19 -18 -43 -25 -36 -4 3 -2 16 5 27
12 24 20 27 20 9z m404 -13 c9 -13 16 -28 16 -33 0 -7 -29 -8 -48 -3 -1 1 2
10 8 21 8 16 8 20 -4 20 -8 0 -18 5 -21 10 -14 22 34 8 49 -15z m132 -16 c3
-6 1 -16 -5 -22 -17 -17 -13 -29 9 -22 14 4 20 2 20 -8 0 -24 -29 -28 -50 -7
-12 12 -20 15 -23 7 -3 -9 -8 -9 -16 -1 -9 8 -5 17 15 37 29 29 39 33 50 16z
m-596 -9 c0 -5 -4 -10 -10 -10 -5 0 -10 5 -10 10 0 6 5 10 10 10 6 0 10 -4 10
-10z m235 -14 c6 3 18 -2 25 -11 15 -18 0 -21 -18 -3 -9 9 -12 9 -12 0 0 -20
-17 -13 -23 9 -4 16 -3 19 5 11 6 -6 16 -8 23 -6z m285 0 c0 -3 -4 -8 -10 -11
-5 -3 -10 -1 -10 4 0 6 5 11 10 11 6 0 10 -2 10 -4z m146 -12 c20 -14 22 -19
12 -31 -10 -13 -13 -12 -20 7 -4 12 -12 18 -18 15 -5 -3 -10 1 -10 9 0 20 5
20 36 0z m864 1 c0 -8 -10 -19 -21 -26 -21 -11 -21 -11 -3 15 22 30 24 31 24
11z m-1560 -10 c0 -8 -4 -15 -10 -15 -5 0 -7 7 -4 15 4 8 8 15 10 15 2 0 4 -7
4 -15z m498 -2 c-10 -2 -18 -11 -18 -19 0 -14 -12 -19 -23 -8 -10 10 17 33 38
32 17 0 17 -1 3 -5z m-278 -12 c0 -11 -31 -24 -39 -16 -3 3 1 10 9 15 19 12
30 12 30 1z m125 -11 c3 -5 2 -10 -4 -10 -5 0 -13 5 -16 10 -3 6 -2 10 4 10 5
0 13 -4 16 -10z m185 -20 c-27 -27 -35 -25 -13 4 10 13 21 22 25 20 4 -3 -2
-14 -12 -24z m-90 -1 c0 -5 -4 -9 -10 -9 -5 0 -10 7 -10 16 0 8 5 12 10 9 6
-3 10 -10 10 -16z m220 1 c0 -5 -4 -10 -10 -10 -5 0 -10 5 -10 10 0 6 5 10 10
10 6 0 10 -4 10 -10z m873 -10 c-3 -11 -10 -17 -15 -14 -6 4 -8 -2 -3 -15 4
-15 2 -21 -8 -21 -16 0 -13 34 6 58 15 19 26 14 20 -8z m-1043 -26 c0 -15 -26
-12 -42 4 -9 9 -6 12 15 10 15 -1 27 -8 27 -14z m113 -6 c-10 -48 -13 -52 -25
-40 -9 9 -8 18 2 37 17 31 30 33 23 3z m-296 -26 c1 -33 0 -34 -8 -13 -8 21
-6 51 3 51 2 0 4 -17 5 -38z m20 6 c-3 -7 -5 -2 -5 12 0 14 2 19 5 13 2 -7 2
-19 0 -25z m353 22 c0 -12 -40 -33 -48 -25 -4 4 2 13 12 21 23 16 36 18 36 4z
m-630 -4 c0 -2 -7 -17 -15 -32 l-15 -29 0 26 c0 14 3 29 7 32 7 8 23 9 23 3z
m46 -10 c20 -20 18 -24 -11 -18 -25 4 -31 13 -18 25 9 10 13 9 29 -7z m54 4
c0 -5 -4 -10 -10 -10 -5 0 -10 5 -10 10 0 6 5 10 10 10 6 0 10 -4 10 -10z
m375 -30 c-4 -12 -9 -19 -12 -17 -3 3 -2 15 2 27 4 12 9 19 12 17 3 -3 2 -15
-2 -27z m-525 10 c0 -5 -9 -10 -21 -10 -11 0 -17 5 -14 10 3 6 13 10 21 10 8
0 14 -4 14 -10z m775 0 c-3 -5 -11 -10 -16 -10 -6 0 -7 5 -4 10 3 6 11 10 16
10 6 0 7 -4 4 -10z m-322 -12 c4 -10 8 -9 16 2 9 13 11 13 11 -1 0 -9 -6 -19
-14 -22 -14 -5 -36 10 -36 25 0 13 18 9 23 -4z m-363 -19 c0 -5 -4 -9 -10 -9
-5 0 -10 7 -10 16 0 8 5 12 10 9 6 -3 10 -10 10 -16z m273 5 c-3 -9 0 -20 8
-25 11 -7 11 -9 -3 -9 -13 0 -18 8 -18 25 0 14 4 25 10 25 5 0 7 -7 3 -16z
m-393 -7 c0 -16 -40 -51 -48 -42 -4 3 -1 10 6 14 7 4 10 15 6 24 -4 13 -1 17
15 17 12 0 21 -6 21 -13z m435 3 c-3 -5 -1 -10 4 -10 6 0 11 -5 11 -11 0 -8
-5 -8 -15 1 -13 11 -12 30 1 30 3 0 2 -4 -1 -10z m155 6 c0 -3 -4 -8 -10 -11
-5 -3 -10 -1 -10 4 0 6 5 11 10 11 6 0 10 -2 10 -4z m930 -14 c0 -17 -29 -47
-37 -38 -4 5 -2 11 5 13 6 3 12 11 12 19 0 8 5 14 10 14 6 0 10 -4 10 -8z
m-700 -6 c0 -3 -4 -8 -10 -11 -5 -3 -10 -1 -10 4 0 6 5 11 10 11 6 0 10 -2 10
-4z m-270 -15 c0 -5 -9 -7 -20 -4 -11 3 -20 7 -20 9 0 2 9 4 20 4 11 0 20 -4
20 -9z m-147 -41 c-3 -11 -9 -18 -13 -15 -5 3 -11 -3 -13 -12 -4 -14 -5 -13
-6 5 0 12 4 22 9 22 6 0 9 3 9 8 -3 16 1 23 10 18 5 -3 7 -15 4 -26z m1072 -8
c-3 -8 -5 -22 -5 -32 0 -10 -9 -20 -20 -23 -16 -4 -19 -11 -14 -36 4 -20 2
-31 -5 -31 -6 0 -11 17 -11 39 0 30 4 40 20 44 11 3 20 11 20 19 0 10 -3 9
-10 -2 -8 -13 -10 -13 -10 2 0 9 -6 18 -12 21 -10 3 -10 7 0 20 11 13 17 14
33 4 11 -7 17 -18 14 -25z m-1425 17 c0 -5 5 -7 10 -4 13 8 13 -5 0 -25 -8
-13 -10 -13 -10 2 0 9 -8 22 -17 27 -17 10 -17 10 0 11 9 0 17 -5 17 -11z
m300 7 c0 -2 -7 -7 -16 -10 -8 -3 -12 -2 -9 4 6 10 25 14 25 6z m120 -16 c0
-5 -4 -10 -10 -10 -5 0 -10 5 -10 10 0 6 5 10 10 10 6 0 10 -4 10 -10z m-486
-23 c13 -21 10 -23 -41 -32 -29 -4 -43 -3 -43 4 0 6 9 11 21 11 13 0 23 8 26
20 6 23 21 22 37 -3z m1423 -11 c-10 -26 -25 -18 -19 10 3 17 8 22 15 15 5 -5
7 -17 4 -25z m-514 -1 c-3 -9 -8 -14 -10 -11 -3 3 -2 9 2 15 9 16 15 13 8 -4z
m-571 -17 c-6 -6 -15 -8 -19 -4 -4 4 -1 11 7 16 19 12 27 3 12 -12z m518 1 c0
-14 -27 -10 -33 5 -4 10 0 12 14 9 10 -3 19 -9 19 -14z m-730 1 c0 -5 -9 -10
-20 -10 -11 0 -20 5 -20 10 0 6 9 10 20 10 11 0 20 -4 20 -10z m315 0 c-3 -5
-11 -10 -16 -10 -6 0 -7 5 -4 10 3 6 11 10 16 10 6 0 7 -4 4 -10z m-395 -4 c0
-3 -4 -8 -10 -11 -5 -3 -10 -1 -10 4 0 6 5 11 10 11 6 0 10 -2 10 -4z m-135
-26 c-3 -5 -12 -10 -18 -10 -7 0 -6 4 3 10 19 12 23 12 15 0z m122 -16 c-3 -3
-12 -4 -19 -1 -8 3 -5 6 6 6 11 1 17 -2 13 -5z m63 2 c0 -2 -7 -6 -15 -10 -8
-3 -15 -1 -15 4 0 6 7 10 15 10 8 0 15 -2 15 -4z m-112 -31 c3 -19 2 -19 -12
-1 -9 10 -20 15 -27 10 -8 -4 -10 -3 -5 5 12 18 40 9 44 -14z m-61 -7 c-3 -8
-6 -5 -6 6 -1 11 2 17 5 13 3 -3 4 -12 1 -19z m93 12 c0 -5 -4 -10 -10 -10 -5
0 -10 5 -10 10 0 6 5 10 10 10 6 0 10 -4 10 -10z m147 -15 c-4 -8 -11 -15 -17
-15 -6 0 -6 7 2 20 14 22 24 19 15 -5z m1243 16 c0 -5 -7 -11 -15 -15 -15 -5
-20 5 -8 17 9 10 23 9 23 -2z m0 -37 c0 -8 -5 -12 -10 -9 -6 4 -8 11 -5 16 9
14 15 11 15 -7z m-1507 -9 c4 -8 2 -17 -4 -21 -6 -4 -6 -11 1 -19 15 -18 4
-35 -21 -35 -16 0 -18 3 -9 19 5 11 10 31 10 45 0 28 14 35 23 11z m1517 -29
c0 -3 -4 -8 -10 -11 -5 -3 -10 -1 -10 4 0 6 5 11 10 11 6 0 10 -2 10 -4z
m-1380 -13 c0 -11 -48 -32 -55 -25 -4 4 27 23 53 31 1 1 2 -2 2 -6z m60 3 c0
-3 -4 -8 -10 -11 -5 -3 -10 -1 -10 4 0 6 5 11 10 11 6 0 10 -2 10 -4z m1310
-26 c0 -5 -2 -10 -4 -10 -3 0 -8 5 -11 10 -3 6 -1 10 4 10 6 0 11 -4 11 -10z
m-1480 -36 c0 -8 -4 -12 -10 -9 -5 3 -10 10 -10 16 0 5 5 9 10 9 6 0 10 -7 10
-16z m47 -6 c-3 -8 -6 -5 -6 6 -1 11 2 17 5 13 3 -3 4 -12 1 -19z m1434 -51
c-16 -16 -25 -1 -10 16 8 8 16 11 18 5 2 -5 -2 -15 -8 -21z m19 -121 c0 -8 3
-23 6 -33 4 -13 3 -14 -3 -5 -6 7 -15 12 -20 10 -12 -3 -14 9 -6 30 7 17 23
15 23 -2z m-119 -123 c-9 -16 -10 -16 -11 -1 0 9 3 25 7 35 7 16 8 17 11 1 2
-10 -1 -25 -7 -35z m-21 -73 c0 -11 -4 -20 -10 -20 -5 0 -10 -20 -10 -45 0
-26 -5 -45 -11 -45 -6 0 -9 -6 -6 -14 3 -7 1 -18 -5 -24 -13 -13 0 -35 17 -28
19 7 26 -4 15 -24 -7 -12 -17 -16 -31 -13 -19 5 -20 11 -17 62 6 66 35 171 49
171 5 0 9 -9 9 -20z m4 -320 c1 -14 -8 -32 -19 -41 -17 -14 -17 -19 -6 -33 11
-13 11 -20 3 -28 -18 -18 -14 -28 9 -28 15 0 19 -4 14 -19 -5 -16 -2 -18 17
-14 l23 5 -22 -20 c-30 -26 -29 -36 2 -28 14 4 25 4 25 2 0 -2 3 -13 7 -23 6
-15 4 -16 -9 -5 -13 10 -17 10 -21 0 -4 -10 -7 -11 -18 0 -15 13 -29 16 -29 5
0 -11 51 -34 60 -28 5 3 6 -4 3 -15 -4 -14 0 -20 11 -20 9 0 16 -7 16 -15 0
-8 -5 -15 -11 -15 -6 0 -8 -9 -4 -22 6 -23 6 -23 -11 -3 -16 19 -16 19 -12
-12 3 -25 0 -33 -16 -37 -24 -6 -36 2 -18 13 10 6 9 14 -3 37 -8 16 -15 35
-15 42 0 6 -5 12 -11 12 -6 0 -8 7 -5 16 4 9 1 23 -5 30 -18 22 -25 134 -8
145 11 7 11 9 -3 9 -19 0 -24 20 -9 36 6 5 6 25 0 53 -7 31 -7 47 1 55 8 8 11
7 8 -4 -2 -8 4 -15 12 -15 10 0 14 8 13 25 -2 24 -2 24 14 -5 9 -16 16 -41 17
-55z m2 -77 c-10 -10 -19 5 -10 18 6 11 8 11 12 0 2 -7 1 -15 -2 -18z m61
-341 c-9 -11 -7 -18 9 -31 24 -19 41 -71 23 -71 -6 0 -17 7 -25 15 -14 13 -14
15 0 15 9 0 16 4 16 9 0 5 -8 8 -17 7 -10 0 -17 5 -15 12 1 7 -4 23 -13 35 -8
12 -15 16 -15 9 0 -7 -5 -10 -11 -6 -16 9 10 24 38 22 18 -2 20 -5 10 -16z
m52 -128 c1 -2 0 -7 -4 -13 -8 -14 -40 2 -48 23 -5 13 -2 13 21 4 15 -7 29
-13 31 -14z m11 -60 c0 -8 -4 -12 -10 -9 -5 3 -10 10 -10 16 0 5 5 9 10 9 6 0
10 -7 10 -16z"/>
<path d="M6741 6724 c0 -11 3 -14 6 -6 3 7 2 16 -1 19 -3 4 -6 -2 -5 -13z"/>
<path d="M4800 6626 c0 -9 5 -16 10 -16 6 0 10 4 10 9 0 6 -4 13 -10 16 -5 3
-10 -1 -10 -9z"/>
<path d="M4151 6506 c-14 -17 10 -40 36 -33 15 4 15 6 -5 12 -14 5 -21 13 -18
21 7 18 2 18 -13 0z"/>
<path d="M4235 6460 c4 -6 11 -8 16 -5 14 9 11 15 -7 15 -8 0 -12 -5 -9 -10z"/>
<path d="M4040 6441 c0 -6 5 -13 10 -16 6 -3 10 1 10 9 0 9 -4 16 -10 16 -5 0
-10 -4 -10 -9z"/>
<path d="M4443 6435 c-3 -9 -3 -18 -1 -21 3 -3 8 4 11 16 6 23 -1 27 -10 5z"/>
<path d="M4187 6433 c-4 -3 -7 -11 -7 -17 0 -6 5 -5 12 2 6 6 9 14 7 17 -3 3
-9 2 -12 -2z"/>
<path d="M4167 6399 c7 -7 15 -10 18 -7 3 3 -2 9 -12 12 -14 6 -15 5 -6 -5z"/>
<path d="M4065 6389 c-9 -14 -2 -20 14 -10 8 6 9 11 3 15 -6 3 -14 1 -17 -5z"/>
<path d="M4008 6343 c7 -3 16 -2 19 1 4 3 -2 6 -13 5 -11 0 -14 -3 -6 -6z"/>
<path d="M5391 6544 c0 -11 3 -14 6 -6 3 7 2 16 -1 19 -3 4 -6 -2 -5 -13z"/>
<path d="M5827 6594 c-14 -14 -7 -35 11 -32 9 2 17 10 17 17 0 16 -18 25 -28
15z"/>
<path d="M4818 6483 c-15 -14 -19 -14 -34 -2 -13 11 -18 11 -21 1 -3 -6 -9
-10 -14 -6 -5 3 -9 0 -9 -6 0 -7 8 -9 21 -5 16 5 20 3 17 -6 -3 -8 -9 -14 -14
-15 -5 0 -17 -4 -26 -8 -22 -10 -24 -31 -3 -23 8 4 17 2 20 -3 10 -17 25 -11
18 7 -5 12 -2 15 9 10 9 -3 23 2 34 14 21 23 40 24 48 2 5 -11 10 -13 17 -6 8
8 4 19 -12 37 -27 31 -30 31 -51 9z"/>
<path d="M4835 6430 c3 -5 8 -10 11 -10 2 0 4 5 4 10 0 6 -5 10 -11 10 -5 0
-7 -4 -4 -10z"/>
<path d="M4182 5872 c4 -20 33 -23 33 -3 0 8 -8 15 -18 17 -12 2 -17 -3 -15
-14z"/>
<path d="M4290 5879 c0 -5 -4 -7 -10 -4 -5 3 -10 -1 -10 -9 0 -22 17 -20 30 4
7 14 7 20 0 20 -5 0 -10 -5 -10 -11z"/>
<path d="M4350 5855 c-14 -17 -35 -21 -25 -5 3 6 -1 7 -9 4 -19 -7 -19 -9 -5
-36 10 -19 9 -20 -10 -15 -11 3 -21 1 -21 -4 0 -5 5 -9 11 -9 7 0 18 -8 25
-17 13 -17 13 -17 15 2 1 11 1 23 0 28 0 4 6 7 14 7 8 0 15 8 15 18 0 10 5 23
12 30 8 8 8 12 1 12 -6 0 -16 -7 -23 -15z"/>
<path d="M4500 5860 c0 -5 7 -10 16 -10 8 0 12 5 9 10 -3 6 -10 10 -16 10 -5
0 -9 -4 -9 -10z"/>
<path d="M4220 5850 c0 -5 5 -10 10 -10 6 0 10 5 10 10 0 6 -4 10 -10 10 -5 0
-10 -4 -10 -10z"/>
<path d="M4380 5839 c0 -5 5 -7 10 -4 6 3 10 8 10 11 0 2 -4 4 -10 4 -5 0 -10
-5 -10 -11z"/>
<path d="M4693 5833 c-7 -3 -13 -11 -13 -19 0 -10 8 -12 33 -7 17 3 34 7 36 9
13 11 -35 25 -56 17z"/>
<path d="M4230 5810 c0 -5 -10 -11 -22 -13 -14 -3 -9 -5 15 -6 37 -1 50 12 22
23 -8 3 -15 1 -15 -4z"/>
<path d="M4230 5770 c0 -5 5 -10 11 -10 5 0 7 5 4 10 -3 6 -8 10 -11 10 -2 0
-4 -4 -4 -10z"/>
<path d="M4280 5756 c0 -9 -7 -16 -15 -16 -8 0 -15 -4 -15 -10 0 -16 15 -12
34 9 11 12 14 21 7 26 -6 3 -11 -1 -11 -9z"/>
<path d="M4278 5679 c-31 -33 -35 -49 -13 -49 8 0 15 6 15 13 0 8 3 7 9 -2 8
-12 11 -9 16 12 4 14 10 26 14 25 21 -2 31 4 31 20 0 13 -2 14 -9 3 -6 -9 -11
-10 -15 -2 -10 16 -18 13 -48 -20z"/>
<path d="M4516 5951 c-4 -7 -5 -15 -2 -18 9 -9 19 4 14 18 -4 11 -6 11 -12 0z"/>
<path d="M4050 5888 c0 -11 7 -14 25 -10 14 2 25 0 25 -6 0 -15 -35 -21 -55
-10 -11 7 -20 7 -24 1 -3 -6 -13 -13 -21 -17 -8 -3 -4 -4 9 -2 14 3 30 1 37
-5 8 -7 14 -7 19 1 3 5 14 10 25 10 10 0 21 7 24 16 8 21 7 22 -32 30 -25 5
-32 3 -32 -8z"/>
<path d="M3950 5819 c0 -7 -9 -9 -21 -6 -15 4 -19 3 -12 -4 11 -11 63 -1 63
12 0 5 -7 9 -15 9 -8 0 -15 -5 -15 -11z"/>
<path d="M3996 5808 c-8 -33 -7 -40 5 -36 14 5 22 58 9 58 -4 0 -10 -10 -14
-22z"/>
<path d="M4084 5817 c3 -10 6 -20 6 -22 0 -2 9 -1 20 2 11 3 17 9 14 14 -3 5
-10 6 -16 3 -6 -4 -15 0 -20 7 -8 11 -8 10 -4 -4z"/>
<path d="M4081 5761 c-8 -5 -9 -11 -3 -15 5 -3 12 1 16 9 6 17 6 18 -13 6z"/>
<path d="M4035 5750 c-3 -6 1 -13 10 -16 21 -9 26 -2 10 13 -9 8 -16 9 -20 3z"/>
<path d="M4070 5714 c0 -5 -18 -10 -40 -11 -49 -2 -60 -8 -60 -33 0 -10 -6
-21 -12 -23 -7 -3 -3 -6 9 -6 12 -1 24 -9 26 -18 2 -10 3 -5 1 11 -3 16 -1 27
2 23 4 -4 14 2 22 14 l14 20 18 -21 c21 -24 26 -25 33 -6 4 10 1 13 -9 9 -17
-6 -19 8 -2 25 6 6 9 15 5 19 -4 3 -7 2 -7 -3z"/>
<path d="M4105 5690 c-3 -5 -1 -10 4 -10 6 0 11 5 11 10 0 6 -2 10 -4 10 -3 0
-8 -4 -11 -10z"/>
<path d="M3914 5665 c-5 -20 -9 -23 -20 -14 -11 9 -14 8 -14 -5 0 -18 45 -23
55 -6 3 6 1 10 -5 10 -7 0 -9 8 -5 20 3 11 4 20 1 20 -3 0 -8 -11 -12 -25z"/>
<path d="M4100 5649 c0 -5 5 -7 10 -4 6 3 10 8 10 11 0 2 -4 4 -10 4 -5 0 -10
-5 -10 -11z"/>
<path d="M4060 5620 c0 -5 5 -10 11 -10 5 0 7 5 4 10 -3 6 -8 10 -11 10 -2 0
-4 -4 -4 -10z"/>
<path d="M3890 5591 c0 -5 5 -13 10 -16 6 -3 10 -2 10 4 0 5 -4 13 -10 16 -5
3 -10 2 -10 -4z"/>
<path d="M2145 4550 c3 -5 10 -10 16 -10 5 0 9 5 9 10 0 6 -7 10 -16 10 -8 0
-12 -4 -9 -10z"/>
<path d="M1757 4383 c-4 -3 -7 -13 -7 -21 0 -12 3 -12 15 -2 8 7 15 16 15 21
0 11 -14 12 -23 2z"/>
<path d="M2831 2883 c-7 -8 -11 -16 -8 -19 2 -2 10 2 17 11 17 20 9 27 -9 8z"/>
<path d="M2820 2720 c0 -11 5 -20 10 -20 6 0 10 9 10 20 0 11 -4 20 -10 20 -5
0 -10 -9 -10 -20z"/>
<path d="M2852 2610 c3 -28 38 -42 38 -15 0 9 -4 14 -9 10 -6 -3 -15 3 -21 12
-9 16 -10 15 -8 -7z"/>
</g>
</svg>
